<svg enable-background="new 0 0 100 100" height="100" viewBox="0 0 100 100" width="100" xmlns="http://www.w3.org/2000/svg"><g id="Layer_2"><path d="m74.5 77.914c-.047-.476.176-1.117-.025-1.594-.256-.608-.82-.846-1.002-1.602-.326-1.348-.107-3.052.03-4.43.069-.698.182-1.408.122-2.126-.09-1.081-.598-1.349-.972-2.308-.362-.929-.626-3.951.7-4.069.326-1.34-.219-3.979.778-4.735.429-.325 1.073.156 1.343-.638.256-.752-.393-1.252-1.081-1.137-.157-1.129 1.092-2.778.358-3.81-.915-1.284-1.585-.188-1.762-2.283-.119-.039-.241-.045-.365-.02l-7.624-39.748-37-.625-5 53.625 1 26.5c.584.67 1.808.475 2.594.781.348.136.455.669.903.574.85-.179.472-1.093.5-1.612.057-1.027.075-2.903.646-3.747.634-.937 2.408-1.155 3.115-.131.81 1.174-.809 2.069-.768 3.01.022.495 1.274 1.821 1.628 2.219 1.962 2.208 3.744.97 5.734-.469.083-.061.084-.44.168-.5.103-.072.689-.235.7-.247.308-.332.781-.1.634-.859-2.838.396-.834-3.004-1.875-4.241-.688-.818-2.387-.792-2.706-2.024-.144-.558.383-2.543.625-3.118z"/></g></svg>