<svg enable-background="new 0 0 100 100" height="100" viewBox="0 0 100 100" width="100" xmlns="http://www.w3.org/2000/svg"><g id="Layer_2"><g><path d="m10.875 84.375c-.699.455-2.952 1.944-1.002 2.968 1.292.678 3.344-1.311 1.146-1.74-.04-.314-.179-.484-.124-.822-.127.354-.217.719-.27 1.094"/><path d="m65.484 52.653c.486 1.558.74 3.528 1.423 4.944.12.25.865 1.427 1.059 1.53.495.264.966-.134 1.681-.255 1.737-.295 2.798.513 3.938 1.53 1.242 1.108 2.431 1.482 3.77.097.538-.558.939-2 1.995-1.382.362.212.619 1.274 1.145 1.64 1.836 1.278 2.44 3.809 4.013 5.469.895.945 2.026 4.655 3.058 5.434.433.328 1.062-1.382 1.45-1.046.265.228.935.681 1.209.866 1.371.926 4.671-2.937 5.66-1.836 1.293 1.438.224 4.969-1.615 5.342-.19-.842-1.247-.906-2.129-.843.451 1.059.802.307.388 1.862-.384 1.444-1.501.834-2.699.222-2.41-1.231-4.274-3.179-5.423-5.35-.58-1.097-1.449-2.065-2.631-2.597-.876-.395-1.813-.592-2.537-1.271-.598-.561-.85-.737-1.513-1.123-.81-.472-1.27-1.438-1.957-1.918-.841-.587-2.29-.826-3.27-1.124-1.552-.472-2.098-1.697-3.867-2.066-1.656-.346-3.396-.281-5.101-.028-2.149.318-2.826-.806-4.789-1.241-1.296-.287-3.497-1.618-4.653-.793-1.203.859-.533 3.086-.991 4.28-1.056-1.291-3.478.86-4.343 1.623-.677.596-1.033 1.756-2.031 1.387-.855-.316-.55-.815-.44-1.505.052-.329.407-.293.477-.617.058-.27-.212-.675-.134-1.008.07-.297.479-.657.509-.845.012-.076-.101-.69-.112-.653.604-1.841.825-1.758 2.695-2.466-1.253-.729-1.338-1.867-2.715-.946-1.131.757-1.84 2.183-2.252 3.406-.557 1.652-1.06 2.194-2.497 3.232-.536.387-1.123.444-1.005 1.274.133.945.312.3.87.625.389.226.975-.105 1.019.625.028.485-1.061 1.136-1.375 1.397-1.49 1.241-2.887 2.694-4.165 4.162-1.683 1.932-3.618 2.488-5.601 3.903-1.596 1.139-3.584 4.034-5.609 4.15-.021-.416.064-.85.234-1.23-1.135-.039-2.542.41-3.365 1.134-.791.696-.888 1.754-2.006 1.99-.989.209-1.529-.229-2.466.394-.957.636-3.814 2.285-2.637-.506.797.003 1.71-.533 2.446-.766 1.159-.367 1.897-.517 2.658-1.509.861-1.123.9-1.755 2.629-1.869 1.391-.091 2.113-.454 3.375-1.006 1.017-.445 1.896-.476 2.778-1.339.966-.946 1.348-2.384 2.179-3.287 1.004-1.091 1.408-.628 1.669-2.343.087-.576-.05-.654.144-1.272.221-.711.761-1.036.705-1.865-.869-.04-1.667.669-2.362 1.13-.321-.583-1.49-1.535-1.387-.159-.448-.097-1.186-.299-1.606-.505-.242-.119-.815-.414-.981-.595-.164-.179-.231-.939-.392-1.014-1.059-.498-1.453 1.658-2.623 1.264-1.615-.543-.841-3.333-.748-4.375.227-2.542-1.472-.878-2.789-1.259-.574-.166-1.832-1.85-2.217-2.499-.707-1.192.67-1.455-.118-2.771-1.001-1.67-2.384-1.963-.848-4.134.535-.756 1.476-1.091 2.06-1.742.705-.785.788-2.069 1.319-2.987 1.836 1.514 3.977.05 5.702-.615.695-.269.66.198 1.103-.392.291-.387.138-1.19.157-1.644.034-.799.337-1.982-.025-2.705-1.036.567-2.063.924-3.104 1.511-.752-.812-1.401-1.033-2.496-1.308-.979-.246-2.544.452-3.35.019-1.105-.595-.644-2.216-.525-3.112.219-1.655-.193-1.4-1.864-1.888.661-1.4 1.337-1.564 2.787-1.352.493.073 1.124.348 1.574.142.631-.288.442-1.39 1.281-1.404.563-.01.926.72 1.316 1.008.5.369.817.478 1.411.719 1.126.457 2.477 1.097 3.365-.259-.884-.345-.61-2.145-1.246-2.96-.674-.863-1.734-1.425-2.246-2.275-.332-.549-.181-1.186-.467-1.697-.381-.68-1.115-.674-1.637-1.146-.904-.817-.919-2.115.122-2.756.763-.469 1.719-.088 2.478-.128.312-.017.372.338.747.218.355-.114 1.188-1.366 1.394-1.667.345-.509.431-1.139.77-1.617.533-.754.571-.167 1.093-.542.826-.593 1.239-1.8 2.149-2.361.847-.521 1.714-.428 2.688-.69 1.587-.427 2.862-.355 2.172-2.318 1.356-.231 1.426 1.175 2.335 1.648.386.202.885-.004 1.314.08.594.115.983.464 1.558.661.55.189 1.097.055 1.621.214.768.232.966.88 1.632 1.166.955.412 2.764.038 3.875.083 1.325.054 2.567.849 3.901.752.958-.07 1.42-.936 2.254-1.018.471-.046 2.4.854 2.875 1.175 1.22.826.812 1.286.635 2.562z"/><path d="m43.75 68.875c1.122 1.995-4.356 3.018-3.881 5.347.401 1.965 2.147 2.167 3.383.525.819-1.089.21-2.228.643-3.482 1.543-.062.997-1.734.23-2.265"/></g></g></svg>