<svg enable-background="new 0 0 100 100" height="100" viewBox="0 0 100 100" width="100" xmlns="http://www.w3.org/2000/svg"><g id="Layer_2"><path d="m23.52 12h54.813l2 76.784-24.509.716-42.657-16.167c.002-.713-.012-1.437.025-2.142 1.484.035 4.809-1.828 3.979-3.866-.341-.836-1.615-.64-2.337-1.123-1.48-.989-.515-.644-.122-2.198.39-1.543-.666-1.244-.715-2.501-.047-1.197 1.319-1.347 1.84-2.162 1.09-1.707-.323-4.79 1.467-6.036-.401-2.67 5.028-3.11 2.863-5.509-.957-1.06-1.422-1.518-2.046-2.955-.562-1.293-.823-1.945-1.834-2.966-.833-.842-1.871-1.737-1.287-3.209.475-1.196 2.084-.933 1.684-3-.123-.632-.817-1.22-.979-1.87-.179-.72.035-1.558-.037-2.3-.158-1.626-.675-2.96-.63-4.625.032-1.208-.367-2.66.83-3.374 1.141-.68 2.847-.125 3.508.466 1.086.973.981 2.302 2.504.741.736-.755.488-2.043 1.463-2.399z"/></g></svg>