<svg enable-background="new 0 0 100 100" height="100" viewBox="0 0 100 100" width="100" xmlns="http://www.w3.org/2000/svg"><g id="Layer_2"><path d="m82.491 71.714-37.173-34.214v-25.667l-27.318-1.5c-.21.496-1.564 1.924-1.353 2.724.252.952 1.533.648 1.901 1.26.434.723-.312 3.661-.536 4.507-.425 1.604-1.398 2.908-1.679 4.51-.473 2.694.483 2.479 2.296 4.166 3.053 2.841.605 5.785 1.375 9.123.626 2.717 3.354 4.123 4.356 6.841.772 2.092 1.835 2.627 3.483 4.161-.04-.93-.872-3.672.692-3.431 1.55.239.952 2.527 1.251 3.484.249.795 2.019 2.389.549 3.124-.488.244-1.877-.721-2.438-.982.395 1.231.143 2.506.768 3.682.745 1.402 1.549.862 2.541 1.626 1.019.784.911 1.686.458 2.874-.471 1.237-.962 1.045-.212 2.539.543 1.08 1.466 2.444 2.259 3.266.461.478.96.585 1.421 1.196.384.509.235 1.172.691 1.63.782.785 2.104.796 2.724 1.825.689 1.143-.093 2.008 1.93 1.903.104 2.29.539 4.363.515 6.653 1.127.45 2.952-.086 4.137-.324 1.175 1.587 2.694.484 4.041 1.346.587.375.464 1.313.82 1.642.729.672 1.271.25 2.176.484.67.173 1.19.665 1.833.845.604.168 1.601-.226 2.049.309.539.642-.364 1.812.448 2.329.675.43 1.646-.595 2.299-.445.766.176 2.961 2.178 3.5 2.84.612.752 1.231 2.159 1.579 3.129.542 1.514.467 2.259 1.588 3.367.714.706.037.758 1.2.966.762.137 1.771-.415 2.54-.499 1.602-.176 3.22.129 4.796-.171 1.47-.28 2.87-.743 4.38-.958 1.306-.186 3.6-.044 4.759-.663 1.252-.669 1.367-2.178-.445-1.899-.143-.965.501-2.296-.218-2.966 1.001-1.367 1.363-2.333 1.521-4.005.069-.733.101-1.548.463-2.166.356-.61 1.356-.971 1.549-1.497.299-.812-.178-1.175-.546-1.628-.236-.292-.902-.153-1.095-.409-.357-.473-.005-.96-.2-1.438-.563-1.384-1.245-1.926-1.675-3.489.01.26.023.526.009.786"/></g></svg>