<svg enable-background="new 0 0 100 100" height="100" viewBox="0 0 100 100" width="100" xmlns="http://www.w3.org/2000/svg"><g id="Layer_2"><path d="m51.25 27.625 38.858.25-.233 24.125c1.16 1.592-2.404.336-1.862 2.112 1.448-.288 1.085 1.675.487 2.269-.685.68-1.717.534-2.603.347-.134-1.745-1.639-.245-2.649 0-1.184.287-2.261.547-3.346.866-1.079.318-5.498 1.191-5.199-.825-1.127-.138-1.32.564-2.106.98-.625.331-1.64.617-2.319.753-.726.146-1.72-.015-2.401.372-.639.363-.66 1.336-1.732 1.134-.585-.11-.896-.717-1.662-.796-.658-.068-1.71.121-2.444.19-.806.076-4.796 1.547-3.8-.509-1.469-.072-2.804.572-4.218.5.097 1.225-1.053.651-1.764.606-.477-.03-.857.178-1.293.033-.249-.083-.267-.588-.481-.661-.756-.258-1.612-.01-2.388.127-.928.164-2.401.957-3.206.855-.064-2.137-2.649-.839-3.53-.19-.721.531-.967.974-1.955 1.182-.816.172-1.521-.068-2.162.681-.693.812-.317 1.219-1.375 1.85-.936.559-.857.355-1.768.156-.659-.144-1.215-.495-1.96-.324-1.075.247-1.226 1.139-2.022 1.665-.487-.813-3.601.057-4.452.375-1.179.44-1.032.678-1.81 1.469-.726.738-1.096.434-1.979.653-1.557.388-2.724 1.329-4.253 1.784-.803.239-1.087-.215-1.872-.158-.655.047-1.463.697-2.105.861-.51-1.913-2.144-2.651-3.356-4.083 1.19-.619 2.5-.78 3.703-1.433 1.38-.748 2.604-1.806 4.016-2.477.97-.461 3.218-.761 1.896-2.025-.863-.826-2.031-.696-2.277-2.216l2.622-31.623 27.25.875c.7.004.047.833 1.625.875.776.021 1.019.708 1.507.25-.037.035.504-.755.5-.749"/></g></svg>