<svg enable-background="new 0 0 100 100" height="100" viewBox="0 0 100 100" width="100" xmlns="http://www.w3.org/2000/svg"><g id="Layer_2"><path d="m25.375 88.375c-.859.16-1.584-.767-1.744-1.506.219-.055.438-.317.609-.372-.372-.939-.876-1.944-1.125-2.906-.087-.336.259-.452.136-.844-.085-.271-.448-.449-.602-.653-.29-.382-.767-.774-.934-1.21-.351-.915-.637-3.568-.197-4.515.267-.576.709-.533.856-1.293.12-.617.056-2.202-.213-2.719-.203-.391-.74-.375-.939-.852-.235-.562-.069-2.085.027-2.736.228-1.542 1.75-1.113 1.472-2.918-.11-.716-.717-1.515-.383-2.238.322-.696 1.449-.684 1.891-1.207.975-1.156-1.126-.654-.766-2.274.103-.464.515-.596.54-1.16.021-.468-.305-.917-.469-1.34-.3-.775-.23-1.839-.532-2.506-.187-.414-.549-.244-.73-.529-.181-.283-.135-.663-.297-.943l-6.85-39.903h35.75c-.138 1.715-4.546 3.334-3.131 5.527.611.947 1.872 1.059 2.638 1.723.42.364.696 1.002 1.087 1.402.2.205.187.621.5.759.469.207.518-.353.909-.299 1.531.21 1.398 1.046 2.156 2.109.32.448 1.117.849 1.322 1.304.37.817.003 1.515.518 2.353.305.496.77.907 1.122 1.375.65.865.768 2.208 1.379 2.98.416.526 1.079.642 1.722.986.732.392.954.814 1.522 1.288.714.596.93.814 1.378 1.494.458.695.391 1.189 1.36 1.268.132.67 1.506.938 1.986 1.607.588.82.875 2.142 1.404 2.875.322.446.809.513 1.133.875.305.34.202.799.463 1.125.345.43.774.367 1.005.616.343.368.258 1.018.616 1.417.634.708 1.669.241 2.416.585 1.254.579.722 1.439.991 2.509.137.543.463.726.753 1.153.535.787.542.236.497 1.379-.058 1.445-.292 2.492-.105 3.946 3.728-.406 4.438 5.546 4.882 7.884 1.607-.046 1.274.111 2.452.76.438.241 1.375.219 1.605.909-.782.451-2.184.064-2.315 1.319.496.157.956.428 1.091.878-.907.107-1.822.416-2.71.441-.206.523-.145 1.123.091 1.581-.86.606-1.877.559-1.534 1.722.162.548.901.018.552 1.025-.183.527-1.085.872-1.374 1.35 1.818.927-1.546 3.202-.293 4.449-.553 1.552-2.096 2.473-2.597 4.091-.313 1.012 0 1.144.281 2.09 1.302-.171.571 2.13.2 2.747-.6.999-1.547.91-2.597.895-1.903-.028-3.945-2.314-5.816-.85-2.166 1.694.401 3.929-.666 6.116-.452.926-1.248 1.469-1.896.246-.251-.473-.223-1.232-.494-1.762-.189-.371-.479-.489-.506-.994-.191.018-.357.1-.497.247z"/></g></svg>