<svg enable-background="new 0 0 100 100" height="100" viewBox="0 0 100 100" width="100" xmlns="http://www.w3.org/2000/svg"><g id="Layer_2"><g><path d="m9.167 31.667c-.705-.638-1.934-.187-.935-1.5.428-.562 1.945-1.848 2.671-1.742.255.65.386 1.179.022 1.738-.345.531-1.283 1.428-1.758 1.337"/><path d="m18.833 30c-1.139.435-1.054-.738-1.584-1.168-.227-.185-.574-.028-.81-.187-.298-.201-.54-.707-.61-1.058-.246-1.235.532-2.012 1.594-2.487 1-.448 2.251-1.206 3.329-1.019.383.066 1.14.162 1.338.432.126.171-.099.603.009.808.11.21.476.214.575.362.726 1.09-.298 1.868-.661 2.966-.344 1.042-.472 1.292-1.691 1.681-.521.167-1.915.474-1.992-.343.104-.126.021.094.087.096"/><path d="m38.417 35.75c.581.055 1.477 1.81 1.831 2.352.562.86.779 1.671 1.94 1.504 1.026-.147 1.611-.328 2.629.061 1.118.427 1.498.449 2.672.239-.036-.477-.442-1.091-.577-1.573-.145-.516.301-.48-.306-.73-.422-.175-.783.28-1.191.089-.644-.302-.266-1.056-.476-1.547-.19-.444-.821-.722-1.024-1.135-.246-.501.01-1.265-.411-1.677-.604-.593-1.238-.027-1.606.475-.556.757-.597 1.048-1.564 1.441-.482.196-1.254.234-1.584.586"/><path d="m53.667 43c-.728.121.371-1.339.432-1.57.97-.053 1.504.21 2.475.154.959-.055 1.044.34 1.842.585 1.242.381 2.68-.951 3.581.328-.788.614-1.574 1.1-2.592 1.17-.729.051-.963-.294-1.671-.479-.709-.187-1.445-.092-2.162-.021-.549.055-1.861-.142-2.236.167"/><path d="m59.5 46.667c-.49.043-1.604-1.092-1.983-.5-.357.559.394.838.507 1.231.137.473-.31.873.078 1.333.432.512 2.157-.04 2.487-.644.511-.936-.606-1.444-1.089-1.171"/><path d="m63.25 52.833c-.048-.497-.021-1.208.728-1.418.651-.183 1.105.09 1.146.754-.305.145-.655.432-.89.579-.275.172-.547.119-.737.41-.137-.192.014-.222.087-.408"/><path d="m64.667 44.167c-.28-.275-1.009-.411-1.402.079-.187.233-.424 1.87-.356 2.172.135.599.913 1.188 1.429 1.44.263.128.624.329.917.375.275.043.777-.212 1.004-.072 1.034.637-.606 3.667 2.052 2.659 1.174-.445 1.96-1.304 3.259-1.635.558-.142 1.855-.297 1.752-1.088-.858-.352-1.433-.967-2.371-1.241-.479-.14-1.031-.253-1.449-.519-.388-.247-.344-.53-.842-.589-1.086-.129-1.367 1.167-2.496.314-.586-.443-.656-1.243-1.246-1.646"/><path d="m75.75 76.417c-.991-.393-.098-1.894-.084-2.66.018-.925-.25-1.786-.25-2.775 0-1.023-.095-1.829-.604-2.738-.383-.684-1.156-1.161-1.46-1.846-1.259-2.836 2.428-3.087 3.068-4.988.306-.909-.216-1.406-.754-1.931-.417-.407-.579-.303-.584-1.06-.005-.626.27-1.207.345-1.829.832.188 1.804.119 2.489.676.543.441.695 1.403 1.33 1.654.515.204 1.18-.022 1.754.163.625.201 1.371.312 1.921.662 1.092.697 2.033 1.74 3.148 2.421.911.556 1.155.68 1.014 1.644-.125.858.076.912.346 1.758.394.073.915-.213 1.232.032.46.354.107.853.318 1.316.466 1.024 2.122.561 2.672 1.4.402.614-2.067 2.373-2.639 2.943-.294.294-.705.853-1.026 1.01-.407.2-1.174.099-1.639.209-.812.194-1.778.197-2.514.586-.579.305-.941.817-1.488 1.151-.578.353-1.48.344-1.916.932-.499.671-.093 2.047-.911 2.46-.886.447-1.172-.521-1.773-.86-.633-.357-1.371-.026-2.066-.103-.023.117-.027.235-.013.354"/></g></g></svg>