<svg enable-background="new 0 0 100 100" height="100" viewBox="0 0 100 100" width="100" xmlns="http://www.w3.org/2000/svg"><g id="Layer_2"><path d="m24.75 90.875h52.625l-.625-28.75c-.511-1.342-2.359-3.059-3.731-2.606-.234 1.33.442 1.313-.896 1.863.162-.066-1.312.353-1.122.374-.361-.04-.57-.435-.777-.478-.519-.106-.376-.184-.973-.152-.391.021-.764.384-1.25.381-.863-.005-1.415-.622-2.354-.234.037.246-.096.596-.04.84-.948-.568-3.313-.664-3.606.719-.642-.461-1.118-.063-1.621-.703-.501-.636-.437-1.915-.72-2.658-.478-1.256-.739-1.007-1.806-1.192-.974-.169-1.128-.66-1.936-1.178 1.034-1.271-1.333-3.442-2.068-4.447-1.024-1.401-.694-4.479-2.962-4.512.374 2.345-3.098 2.608-3.64.858-.115-.373.261-.771.261-1.127.001-.434-.469-.418-.355-.997.212-1.077 1.345-.84 1.097-1.972-.146-.664-.895-.756-.875-1.653.014-.635.479-1.24.618-1.872.094-.421-.024-1.097.126-1.475.225-.564.716-.729.987-1.256.393-.766.408-1.907-.223-2.545-.629.658-1.313 1.377-1.757.159-.257.193-.607.121-.861.221-.144-.575-.439-.331-.762-.762-.271-.364-.303-.738-.532-1.094-.536-.832-1.369-1.492-2.026-2.275-.436-.518-.747-1.326-1.293-1.728-.4-.295-.907-.273-1.402-.586-.9-.568-1.072-2.182-2.328-2.056.247-.815-1-2.533.185-2.877.211-.788-.333-.761-.579-1.128-.314-.471-.463-.71-.743-1.193-.481-.827-.885-1.916-1.987-2.054-.206-.855.345-1.926.328-2.853l.123-9.877h-7.25l-1.706 31.772c1.863.966.537 2.061.956 3.575.191.69.376.415.75.897.437.562.703 1.08 1.101 1.665.686 1.009 1.759 1.314 1.655 2.742-.089 1.234-1.089 1.945-1.256 3.222-.188 1.434-.782 2.049-1.469 3.29-.576 1.041-.916 2.296-1.943 3.313-1.522 1.508-2.836 4.436-1.053 5.994 1.394 1.218 2.556.931 1.621 3.034-.415.933-.605 1.616-.781 2.591-.145.802-.641 1.737-.598 2.527z"/></g></svg>