<svg enable-background="new 0 0 100 100" height="100" viewBox="0 0 100 100" width="100" xmlns="http://www.w3.org/2000/svg"><g id="Layer_2"><path d="m71.266 18.521c-1.585-1.043-1.517-3.525-2.3-5.243-.33-.723-.742-1.558-1.247-2.281-.443-.634-.65-.474-.721-1.245-.076-.833.74-1.571.377-2.502l-31.625.25c-.229 1.213.896 1.672 1.856 1.89-.136 2.369 2.229 2.002 3.122 3.726.38.732.258 2.414.052 3.162-.209.761-.989 1.262-1.045 1.938-.882.31-1.113 1.213-1.214 2.028-.064.516.335.652-.044 1.221-.231.348-1.117.569-1.478.81-.911.61-1.674.808-2.521 1.216-.81.39-.562.662-1.477.668-.515.003-1.058-.306-1.627-.284-1.33.051-1.748 1.088-1.787 2.488-.037 1.31 1.127 1.562 1.571 2.662.195.484.17 1.44.091 1.949-.118.769-.13.532-.569 1.273-.795 1.339-.986 2.196-1.075 3.736-1.028-.014-2.713.94-3.114 1.885-.208.491.132 1.167.011 1.631-.196.755-.924 1.392-1.393 2.009-1.378 1.813.276 5.219.278 7.591 1.683.329 1.197 1.563 1.981 2.738.861 1.29 2.188 1.365 3.1 2.446.478.566.814 1.121 1.406 1.468.308.181 1.159.174 1.377.398.656.671.592 2.374 1.025 3.359.488 1.107.493 2.407.977 3.5.922 2.089 1.162-1.019 2.368-1.146.765-.081 1.123.975 1.598 1.243.539.305 1.154-.022 1.6.172 1.099.48.685 2.22-.676 2.116-.155.649-.087 1.084-.019 1.722.14 1.292.208 1.142-.378 2.037-.739 1.127-.834 1.918-1.244 3.006-.594 1.577-.75 1.426.622 2.466.488.37.734.871 1.152 1.256.644.593 1.454.807 2.213 1.241.736.422 1.025 1.302 1.501 1.609.459.297 1.121-.109 1.641.294.414.322.513 1.003.966 1.38.632.527 1.329.707 1.909 1.369.545.623.632 1.209.868 1.878.216.611.396 1.091.652 1.725.34.839.41.223.07 1.088-.188.477-.843.914-1.007 1.506-.22.792-.15 1.029.379 1.784.234.335.897 1.724 1.184 1.968.919.785.882-.369 1.213-.389.759-.046.865.638 1.502 1.038.895-1.114.255-2.33 1.61-3.129.848-.5 1.542-.374 2.491.031 1.064.454 3.925 2.969 4.311.506.1-.639-.646-1.026-.758-1.65-.238-1.335.49-1.741 1.415-2.006.451-.129.889.111 1.318-.116.41-.217.537-.84 1.001-1.108.55-.318 1.347-.327 1.974-.294-.197-.665-.916-1.075-1.23-1.731-.543-1.138.106-1.241.53-2.275.407-.993-.088-2.225.238-3.206.294-.88.854-1.154.875-2.25.148 0 .313-.023.463-.032.293-1.171-1.13-1.395-.358-2.746.562-.985 1.982-1.037 2.548-1.988.244-.41.09-1.036.32-1.503.335-.68 1.095-.877 1.511-1.404.399-.506 1.212-1.807 1.376-2.472.302-1.224-.574-4.04-1.41-5.002-.524-.604-1.282-.476-.915-1.771.229-.806 1.452-1.268.71-2.194.397-.167.981-.463.737-.032z"/></g></svg>