<svg enable-background="new 0 0 100 100" height="100" viewBox="0 0 100 100" width="100" xmlns="http://www.w3.org/2000/svg"><g id="Layer_2"><path d="m28.125 9.125c.726.608 1.467 1.439 2.369 1.75 1.24.428 2.556-.238 3.73-.51 1.726-.398 3.937-1.656 5.521-2.578h32.379l.501 57.213c.482-.063.188 1.249.5 1.909.267.562.517.016.347.82-.03.143-.795.673-.828.893-.192 1.276 1.02.625 1.49 1.22.358.452-.007 1.404-.152 1.893-1.237-.491-2.755-.172-3.973.378-1.162.525-2.028 2.289-3.239 2.368.373-1.708-1.815-2.391-3.054-1.489-1.074.782-.429.969-.366 1.912.046.692-.287 1.152-.203 1.825 1.275.238.064 1.406-.371 1.897-.577.649-.346.577-1.157.875-.405.149-.912-.033-1.271.234-.987.734-.124 2.048-.966 2.74-.859.705-1.993-.45-2.985-.083-.161.577.012 1.294-.182 1.728-.255.573-.642.57-.863 1.101-.332.792-.259 2.448.014 3.375-.503.424-1.105.835-1.752.896-.13-1.358-2.939-1.473-3.619-2.485-.476-.708-.619-1.452-1.747-1.365-.936.072-1.64.98-2.711.65.257.346.584.645.953.871-.318.226-1.163.429-1.379.832-.296.552.166 1.066.025 1.525-.182.595-1.022 1.093-1.263 1.607-.321.686.05 1.584-1.116 1.761-.206-.622-.065-1.341-.22-1.967-1.933.879-.438-1.988-1.912-2.052-.372-.017-1.846 1.111-2.256 1.301-.73.34-1.478.688-2.234 1.075.304.678-.125 1.999-1.016 1.734-.289-.085-.992-1.599-1.488-1.944-.938-.651-2.139-1.236-3.274-1.284-1.276-.054-1.475.523-2.331 1.233-.251-.631-1.21-1.358-1.872-.713-.966.941.671 1.444.584 2.335-.918.211-1.006-.862-1.675-1.267-.735-.446-.877-.084-1.597-.21-1.112-.196-2.454-1.707-2.83.39.116.014.322.099.471.124.46 2.228-1.793 1.575-2.106.233-.275-1.179.061-3.392.399-4.483.759.188 1.506-1.311 1.578-1.995-.524-.24-1.123-.722-.95-1.369.249-.927.927-.241 1.498-.544.636-.338 1.382-1.805 1.85-2.387.794-.989 1.296-2.295 1.763-3.459.524-1.309 1.022-1.903 1.997-2.903.43-.442 1.14-1.191 1.246-1.852.18-1.109-.818-1.233-.98-2.035-.16-.796.654-1.016.449-1.844-.094.086-.216.171-.325.234-.542-1.005-.145-1.761-.556-2.74-.289-.687-1.047-1.076-1.487-1.616.536-.797.93-1.543 1.53-2.257-1.067-.893-.32-2.407.738-3z"/></g></svg>