<svg enable-background="new 0 0 100 100" height="100" viewBox="0 0 100 100" width="100" xmlns="http://www.w3.org/2000/svg"><g id="Layer_2"><path d="m71.233 75.846c.635 1.078 1.802 1.523 2.73 2.321 1.325 1.139 1.326 2.055 2.725.333-.841-1.607.657-2.384 1.646-3.037.523-.345 1.529-.565 1.809-1.167.257-.553-.323-1.052-.146-1.634.434-1.428 2.288-1.727 1.878-3.496-.353-1.523-2.036-1.788-1.054-3.641-1.301-.435-1.488-1.504-.346-2.234-1.68-2.013 4.621-2.469 5.35-2.782.878-.377 2.735-1.008 3.472-1.705 1.064-1.006.232-2.342.913-3.475.4-.667.921-.279 1.335-.822.366-.479.789-1.919.806-2.524.013-.471-.515-2.983-.842-3.325-.758-.79-2.278-.065-3.22-.984-.909-.886-.736-2.563-1.41-3.616-.481.414-.935.433-1.521.416-.064-.68-.747-1.05-.833-1.625-.117-.776.471-1.395.183-2.183-.685-1.874-2.449-.664-4.019-.854-.103-1.375-1.807-2.456-2.364-3.812-.591-1.44-.692-2.103.054-3.499.309-.578 1.146-1.46 1.087-2.138-.083-.951-.347-.285-.844-.814-1.461-1.555-1.28-1.474-1.122-3.882l-67.167.167c-.566.407-.981 1.01-1.149 1.678 1.497.383 2.01 1.046 1.507 2.613 1.752 1.229 1.147 1.583.471 3.038-.262.564-.391 1.373-.671 2.004-.312.704-1.102 1.137-1.449 1.867-.771 1.622 1.005 2.633 1.583 4.004.563 1.337.879 2.851 1.041 4.259.185 1.603.983 2.405 1.659 3.704.562 1.081 1.873 2.583 2.141 3.704.146.608-.2 1.297-.09 1.963.065.398.63.608.672.963.046.386-.237.525-.26.861-.1 1.404-.843 2.747.538 3.842.531.422 1.467.196 1.849.826.332.546-.127 1.948-.184 2.508-.067.67-.429 1.893-.328 2.5.163.978.854 1.183 1.178 2.171.147.447.248 2.276.167 2.667-.175.845-1.37 1.442-1.486 2.037-.139.709 1.566 2.84 2.312 3.125z"/></g></svg>