<svg enable-background="new 0 0 100 100" height="100" viewBox="0 0 100 100" width="100" xmlns="http://www.w3.org/2000/svg"><g id="Layer_2"><path d="m23.417 64.75v-2l48.083 1.083c.09.118.187.215.318.245.264-.701 1.543-1.363 2.201-1.562.441-.133.821-.023 1.227-.266.49-.293.819-.727 1.316-1.043.624-.396 1.146-.651 1.823-.879.24-.081.467-.039.692-.181.643-.404.888-1.455 1.275-2.069.565-.895 1.319-1.653 1.965-2.479.65-.832 1.204-.829 2.181-1.264.545-.242.741-.475 1.084-.919.948-1.23 2.456-1.693 3.6-2.753-.339-.96-1.173-1.289-2.109-1.561-1.042-.303-1.087-.753-1.652-1.688-.539-.892-.891-2.072-1.502-2.882-.645-.854-1.538-1.365-1.504-2.47.026-.859.015-1.509-.186-2.461-.163-.77.467-1.629.213-2.25-.308-.753-1.887-.171-2.607-.533-1.25-.629-.28-1.257-.427-2.228-1.235-.056-1.809 1.35-2.831 1.582-1.14.258-2.402-.875-3.468-1.011-.883-.113-1.083.14-1.716.508-.31.181-.763.589-1.151.506-.27-.057-.952-.949-1.229-1.144-.309-.216-.638-.471-.994-.6-1.027-.371-2.486-.25-3.21-1.08-.594-.681-.713-1.654-1.057-2.432-.307-.694-.339-.398-1.112-.438-.587-.03-.432-.118-.805-.319-.946-.51-1.491-.743-2.659-.481-.025.835.091 1.662.236 2.42.176.914.488 1.693-.833 1.819-.925.088-1.351.021-2.162.658-.53.416-.805.524-1.46.832-.138.064-.755.593-.899.5-.318-.206.035-.3-.058-.555-.128-.355.055-1.125-.848-.951-.296.057-.907.944-.99 1.244-.208.749.777 1.663.237 2.417-.19.266-.659.224-.966.434-.406.278-.521.771-.761 1.165-.596.981-.543.64-1.415.83-.385.084-.468-.109-.606.324-1.578.382-.984 1.742-1.383 2.829-.168.459-.183.808-.767.937-.286.063-.504-.142-.765-.17-.436-.046-1.014.172-1.399.091-1.128-.239-.488-2.717-2.173-1.528-1.146.809-.681 2.698-1.985 3.431-.408.229-1.627.425-2.063.099-.448-.335-.206-.926-.777-1.188-1.833-.842-1.387 1.754-2.507 1.934-.831.133-1.607-1.21-2.248-1.604-.558-.343-1.3-.448-1.94-.246-.66.208-1.195 1.09-1.838.391-.27.178-.886.692-1.251.549-.312-.123-.11-.541-.319-.682-.306-.206-1.057-.277-1.493.066-.479.376-.224.923-.623 1.509-.458.672-1.707.968-1.769 1.768-.041.546.575.901.731 1.346.355 1.011-.14.67-.923.729-1.46.111-2.523 1.322-4.156 1.267-.017.05-.018.101-.002.153-1.538 1.156.312 1.837.813 2.745.688 1.246-.906 2.212-1.999 1.529-.438-.274-.854-.68-1.231-1.04-.152-.145-.226-.466-.41-.572-.317-.185-.698.049-1.015-.072-.597-.228-.735-.977-1.562-.841-.737.122-1.412 1.082-1.835 1.658-.344.469-.818 1.027-.604 1.613.054.147.566.546.695.722.47.638.4.821.148 1.448-.133.331-.256.319-.354.73-.056.232-.046.429-.067.664-.049.529.021.84-.25 1.402-.371.774.021.445-.752.504-.819.064-2.296.083-2.578 1.261z"/></g></svg>