<svg enable-background="new 0 0 100 100" height="100" viewBox="0 0 100 100" width="100" xmlns="http://www.w3.org/2000/svg"><g id="Layer_2"><path d="m48.905 49.99c-.269-.632-.069-1.618-.121-2.273-.064-.821-.422-1.093.613-1.723-.226-.51-.006-.802.097-1.341.125-.661.113-.85.01-1.521-.186-1.208.017-2.405.115-3.706.015.262.188.546.251.796 1.506-.387.813-2.581 2.268-3.472.167-.102.636-.407.759-.499.207-.157.586.088.834-.112.263-.212.306-1.65.534-2.021.459-.746 1.795-1.365 1.966-2.293.259-1.41-.691-.645-1.096-1.442-.572-1.127.457-2.707 1.469-1.392.078-1.128 1.013-.826 1.409-1.618.416-.832-.048-2.27-1.003-2.403.178-1.76.458-2.362-1.375-2.747-.21-1.024.51-1.386 1.108-1.95-.718-.123-1.296-.689-.727-1.278-.386-.605-1.099-.656-1.021-1.506.059-.646 1.156-.885.883-1.74-.395-1.236-.874.532-1.483-.117-.395-.419.373-1.5.48-1.633h-42.75l-.625 17.501c.495.52.337 1.535.607 1.79.398.376 1.583.223 2.148.704.909.774 1.086 2.1.994 3.25-.124 1.548-.399 2.76.247 4.134.424.9 1.405 1.944 1.972 2.775.394.579.381 1.141.682 1.722.331.641.878.963 1.197 1.591.562 1.109.14 2.75-.128 3.885-.178.754-.175 1.564-.342 2.298-.227.997-.851 1.503-1.352 2.384-.215.378-.276.873-.529 1.235-.158.227-.684.389-.755.603-.328.976.388.628.518 1.4.085.505-.391 1.592-.665 1.983-.25.357-.94.452-.978.995-.033.479.711.919.89 1.372.301.764.104 1.849-.038 2.627-.342 1.876-4.423 7.333-.231 6.509.799-.157 1.386-.679 2.147-.921.865-.275 2.074-.357 2.997-.435 1.481-.125 3.189.038 4.619.378 1.974.47 3.457 1.736 5.347 2.44 1.666.621 4.057 2.232 5.866 2.031 1.123-.125 1.272-1.052 2.158-1.386.468-.177 1.499.063 1.898.134 1.588.283 4.429.697 5.343 2.151 2.773-1.685-1.037-1.878-2.143-1.777-1.338.123-2.801.542-3.128-1.225-.292-1.58.914-2.375 2.318-2.65 1.875-.367 2.235-.267 2.359 1.712 1.203-.009 1.695-2.066 3.266-.5.955.952-.103 2.525 1.946 2.307-.046.39.039.835-.096 1.205 1.376.532 2.944-.414 4.321.526 1.153.787 1.057 2.558-.562 2.422-.128.737-.748 1.49-.024 2.086.515.425 2.462.176 3.09.235 1.71.159 3.99 1.726 5.133 3.003.126-.99 1.065-1.04 1.885-1.016.417-1.131.207-2.195 1.406-2.977 1.574-1.026 1.836.269 1.495 1.489.667-.02 1.405-.475 1.643-1.105.343.183 1.099.447 1.366.738.514.561.14 1.412.481 1.859.771 1.009 2.046-.512 2.387-1.332.37-.888-.126-1.605-.015-2.396.108-.768.644-.836.899-1.512.063-.17-.194-.916-.221-1.097.859-.303 1.236.438 1.831.368.689-.082.677-1.438 1.38-.395.371.55-.452 1.535-.042 2.133.239.349 1.333.679 1.787.753.729.121 1.574-.197 2.286-.012 1 .259 1.405.944 2.123 1.696 1.081 1.131 1.198 2.133 2.709 2.436.922.185 2.403.391 3.278-.148 1.805-1.114.139-2.93-.896-3.703-1.078-.805-1.592-1.549-2.847-1.552-1.881-.004-2.332.007-3.809-1.11-.508-.384-1.208-.545-1.691-.962-.671-.581-.662-.96-.762-2.003.533-.155.927-.545 1.227-1.009.453.174.878.438 1.362.475.212-1.151-2.28-.914-2.483-2.006-.312-1.68 2.417-.139 3.225.005.594-1.059 1.08-1.297 2.258-1.256.112-.57-.21-.994-.121-1.48.072-.389 1.299-.615.265-1.131-1.228-.613-1.479 1.226-2-.619-.262-.926-.334-2.083-1.599-.625-.503.58-.777 1.926-.542 2.606-.761.022-1.828-.792-2.608-1.009-1.044-.29-1.983-.054-1.731-1.45.695-.249 1.358-.053 1.978-.425.56-.336 1.136-1.253 1.406-1.843.693-1.515.03-3.367-.899-4.881-.965-1.571-3.089-2.838-2.787-4.902.273-1.874 2.103-3.537 1.942-5.463z"/></g></svg>