<svg enable-background="new 0 0 100 100" height="100" viewBox="0 0 100 100" width="100" xmlns="http://www.w3.org/2000/svg"><g id="Layer_2"><path d="m66.966 37.153c-.018.15.207.377.165.603-.048.26-.46.185-.483.266-.236.831-.303 1.755-.253 2.709 1.333.072 1.532.207 2.6.925.903.607 2.683.368 3.262.994 1.367 1.478-1.239 1.682-1.261 2.599-.026 1.131 1.793.606 1.483 2.229-1.208.404.121 4.468 1.521 4.271.669-.094.525-.767.997-.883.585-.145.871.378 1.28.63 1.198.736.808 1.03 1.191 2.159.54 1.587 2.52 3.191 1.79 5.101-.467 1.222-3.402 4.132-4.746 3.724.158-.505.125-1.107-.26-1.504-.845.595-.34 2.323-1.608 2.382.054-.243-.083-.591-.036-.839-1.957-.174-.946 1.632-2.13 2.236-.799.408-2.79-.034-3.712.013.046.218-.009.37.09.575-.619.716-.646 1.425-1.385 2.122-1.203 1.132-1.327.405-2.702.275.04-1.019.088-1.59-.985-1.619-.781-.021-1.409.476-1.256 1.283.146.771 1.009.583 1.35 1.12.686 1.077-.217.667-.738 1.257-.517.586-.47 1.528-1.548 1.224-.498-.14-1.218-1.098-1.226-1.631-.016-1.077 1.013-1.088.135-1.75-.306-.23-1.069-.333-1.482-.231-.131.736-.312 1.55-.421 2.23-.15.935-.206.745-.634 1.467-.277.467-.877 2.363-1.848 1.914-.866-.4.157-1.25.509-1.63.393-.424 1.394-.645.756-1.256-.196-.188-1.687-.042-1.981-.116-2.446-.619-.35-1.969-1.048-3.49-.558.048-1.596.187-2.001.6-.578.59-.676 1.335.261 1.413-.536 1.035-1.005 2.052-1.396 3.196-.301.878-1.132 1.984-1.197 2.882.949.601-.844 3.446-2.019 3.397-1.491-.062-1.952-1.95-3.125-.25-.38.551-.085.924-.845 1.351-.73.41-1.465.273-2.162.9-1.019.916-2.415 3.147-3.141.771-1.012-.279-1.368.898-2.333.833-.029-.637-.208-1.262-.642-1.621-1.051.869-3.335 2.573-2.384 4.096.201-.167.565-.203.734-.314.051.879.174 1.353-.478 1.733-.538.314-1.415-.028-1.975.495-.939.876.113 1.208-.017 1.752-.036.151-1.026 1.471-1.154 1.627-1.094 1.331-2.632.377-2.857 2.625-.166 1.654-.392 2.307-1.119 3.873-.879-.167-1.506-.612-1.755-1.497-.117-.416.148-.966.003-1.374-.167-.469-.396-.42-.625-.781-.35-.554-.733-1.25-1.132-1.719-.432-.507-1.028-.682-1.243-1.375l-.625-39.875c.372-.45 1.021-.664 1.625-.5 1.031.28.471 1.479 1.216 1.787 1.306.539 1.016-3.081 1.053-3.771 1.021-.226 1.54.665 2.462.718.433-1.854-2.285-1.901-1.231-3.984.461-.911 1.709-1.32 2.622-2.024.778-.601 1.442-1.212 2.484-1.373.146-.586-.443-1.075-.362-1.479.159-.795.667-.602 1.262-1.094.954-.789 1.282-2.438-.487-2.172-.063-1.522 1.729-2.449 1.455-3.861-.094-.485-.801-.872-.853-1.397-.065-.669.38-1.179.719-1.723.758-1.217 2.297-2.09 2.79-3.372.546-1.418-.06-3.854.694-5.065-.208-.007-.399-.07-.575-.191l11.251-15.624c.904.025 2.01-.037 2.978.022.769 2.136-1.024 3.872 1.491 5.259 1.512.834 1.312-.374 2.656-.875.58-.216.969.083 1.5-.032.771-.167.661-.445 1.151-.844.676-.549 1.137-.341 1.724-.524.222-.069.547.094.752-.025.413-.24.035-.655.272-.859 1.18-1.012 1.696-.403 2.847.412.869.616 2.105.827 2.822 1.591.811.864.629 2.461 1.407 3.155.283.252.752.309 1.146.247z"/></g></svg>