<svg enable-background="new 0 0 100 100" height="100" viewBox="0 0 100 100" width="100" xmlns="http://www.w3.org/2000/svg"><g id="Layer_2"><path d="m7.75 27.5 71 1.118 2 31.007 12-.5c1.73.827.446 4.168-.25 5.507-.939 1.804-1.266 4.864-3.847 4.974-.082.003-.309-.475-.519-.497-.272-.028-.989.102-1.262.162-.913.202-1.75.599-2.693.7-1.33.143-2.131.177-3.301.932-.719.464-2.694 2.636-3.512 1.353-.687-1.078 1.581-2.163.401-2.903.156-.386.5-.75.723-1.08-.761-.419-2.546.363-2.276-.897.229-1.069 2.215-.674 2.267-1.729-.908-.4-1.855.011-2.336-1.028-.314-.678.336-1.738-.236-2.375-2.048-2.28-1.894 3.259-1.912 3.274-.299-.248-.446-.824-.74-1.021-.456-.304-.792-.072-1.258-.272-1.042-.448-1.163-.932-1.522-1.756-.302-.691-1.528-2.095-1.602-2.716-.139-1.161 1.544-.926 1.489-1.984-1.681.154-.198-1.208.229-1.516 2.171-1.569.286-1.41-1.097-2.124-.935-.482-1.271-1.922-.694-2.878.665-1.102 2.33-.655 1.831-2.5-.455-1.686-1.99.555-2.512-1.001-.562-1.673 1.703-1.149 2.38-1.277.736-.139.644-.112 1.094-.72.336-.454.893-1.435.031-1.639-.654-.155-.848.885-1.506.673-.363-.117-.582-1.095-.619-1.411-.144-1.239.249-2.287 1.01-3.131.687-.763 1.338-1.517 1.987-2.237.457-.507.913-.567 1.378-.878.751-.503.695-.274.875-1.123.157-.736.356-3.231-.153-3.731-1.109-1.087-2.082.586-2.069 1.6.021 1.673.022 1.614-1.403 2.726-.887.692-2.302.766-3.131 1.55-.545.516-.354 1.544-.738 1.98-.571.65-.787-.008-1.416.138-1.692.393-.364 2.05.89 2.129-.014.883-.942 2.351.25 2.876.105.842-.448 1.358-.59 2.072.206-.247.245-.423.374-.69-1.127.781-1.277 1.538-1.514 2.872-.13.729-.143 1.301-.516 1.975-.212.384-.722.226-.742.747-.016.381.435.345.518.594.506 1.53-.04 2.816.116 4.408.11 1.132.833 2.052 1.019 3.229 1.501.228 1.693.949 2.009 2.15.339 1.291.001 1.305-.162 2.47-.14.995.398 1.51.64 2.399.218.8-.165 2.041.707 2.5-.646.293-.762-.112-1.247-.347-.206-.1-.809-.531-.966-.65-.989-.751-1.512-1.997-2.525-2.844-.384-.321-.978-.742-1.497-.791-.929-.088-1.197.811-1.957.836-.927.032-1.49-3.059-2.372-1.492-.215-.53-.411-1.174-.873-1.621-.224-.217-1.197-.497-1.28-.617-.452-.649.373-.885.143-1.48-.187-.482-1.314-.772-1.74-.978-.983.898-3.009 2.468-4.306 1.514-1.024-.753-.427-2.048.119-3.149.413-.833 1.124-1.257 1.658-1.952.422-.55.496-1.111.854-1.777.333-.621.745-.535 1.152-.922.586-.558.377-1.042.638-1.653.568-1.33 2.743-2.325 2.459-3.701-.178-.862-1.091-1.6-1.947-1.633-.968-.039-.726.419-1.4.603-1.029.28-2.311-.243-3.128-.941-1.005-.86-.849-1.793-2.238-2.152-.821-.211-1.93.136-2.477-.398-.213-.208-.611-1.532-.509-1.828.334-.974 2.228-1.605.852-2.747-1.052-.873-2.843-.384-4.012-.653-.336-.078-1.391-.639-1.5-.969-.209-.637.338-.82.624-1.412-.213-.22-1.02-.565-1.117-.772-.285-.606.473-.875.266-1.48-.275-.804-2.119-.064-1.648-1.403.206-.586 1.862-.415 1.014-1.5-.423-.542-1.933-.344-2.505-.313-1.33.071-1.095.075-1.844-.781-.444-.508-.921-1.297-1.649-1.374-.634-.067-1.644.583-2.353.75-1.162.271-2.271.549-3.274 1.259.58 1.006-1.546 2.586-2.482 2.349.021-.31-.217-.63-.163-.961-1.235-.154-1.95.353-2.865-.395-.622-.508-1.222-2.165-2.399-1.349-1.064.737-1.333 3.156-2.311 3.952-1.331 1.083-.684-.535-1.434-.931-1.486-.785-1.367 1.283-1.875 1.837-.25.272-1.051.428-1.411.644-.51.306-.796.738-1.216 1.097-.867.739-3.382 3.737-4.347 3.25v-12.626z"/></g></svg>