<svg enable-background="new 0 0 100 100" height="100" viewBox="0 0 100 100" width="100" xmlns="http://www.w3.org/2000/svg"><g id="Layer_2"><g><path d="m71.5 73.75c.344 1.218 3.944-.288 5.16-.466 1.606-.236 4.217-.211 3.196-2.639-1.362.39-2.378.959-2.25-1.128-.862-.117-3.038.739-3.581 1.386-.332.396-.535 1.121-.928 1.598-.485.588-.983 1.148-1.613 1.496.207.441.139.048.266.003"/><path d="m87.131 74.756c.316-.007 1.633-.051 1.874-.15 1.713-.707-.074-2.219-.845-2.833 1.933-.383 5.002 3.461 2.496 4.584-1.851.83-4.604.018-5.375-1.702z"/><path d="m57.994 51.941-49.744-1.863 6.25-21.203 46 1.5c.321-.068.866-1.861 1.397-.397 1.152.215.754-.845.979-1.478.451-1.27.817-.572 2-.994.849-.303 1.194-1.122 1.869-1.606.669-.48 1.624-.749 2.381-.916.514.657 1.363.437 1.85 1.013.554.655.137 2.082.297 2.875.181.898.894 2.486 1.603 3.134.948.867 1.865.616 1.892-.862 1.699-.392 1.459 1.164.858 2.203-.586 1.015-1.838 1.618-3.009 1.887-.633-.883-2.629.122-2.473 1.122.418.048.516.257.812.488-1.014.812-4.258 2.773-3.94 3.884 1.268.285-.74 1.552-.551 2.278.364 1.404 1.836.607 2.502.734.409-.968 3.376 1.123 3.975 1.869.626.781.689 1.787 1.337 2.546.539.632 1.04 1.161 1.462 1.87-.562 1.161-2.97 1.562-1.625 2.95.727.75 2.048 1.103 2.851 1.93 1.102 1.138.316 2.148.812 3.47.384 1.024 2.078 1.786 3.1 2.125 1.218.404 2.273.776 3.51.281.51-.204.899-.659 1.487-.756.542-.09 1.023.152 1.501.103 2.748-.283 3.08-3.086 1.968-4.972-.41-.695-.634-.46-.844-1.406-.147-.661-.059-1.108-.403-1.719-.3-.532-.78-1.254-1.471-1.155-1.059.151-.42 1.169-1.098 1.615-.472-.579-1.643-1.793-.948-2.649.616-.76 2.243-.368 2.914-.091.738.305 2.022.919 2.506 1.528.493.62.452 1.686.657 2.441.597 2.196 1.215 3.784 1.219 6.031.001.987.359 2.031.221 3.003-.146 1.033-.958 1.563-1.353 2.461.174-1.07-.154-1.727-1.12-1.964-1.184-.292-1.657.641-2.625.877-.462.113-.915-.178-1.381-.127-.383.042-.731.316-1.016.349-.947.11-1.7-.513-2.497-.331-1.186.271-2.101 1.832-3.132 2.35-1.09.547-1.907.361-2.946 1.103-1.086.776-5.501 4.744-6.644 3.375.274-.574.799-.574 1.249-.941.614-.501 1.057-1.168 1.586-1.75.505-.555 2.61-2.018 2.789-2.677.136-.5-.359-.816-.362-1.131-.005-.514.616-1.176.584-1.569-.083-1.035-1.288-.882-1.85-1.555-.717.77-.917 1.822-1.726 2.403-.561.402-1.78 1.751-2.634 1.394-.862 2.551-2.223 2.81-4.65 3.312-.684-1.463-.769-3.378-1.144-4.937-.209.066-.473-.029-.703.087-.505-.522-.59-1.158-.995-1.737-.492-.704-1.334-.838-1.905-1.369-1.05-.977.359-4.109-1.484-4.144.046-1.115-.676-3.409-.145-4.292.008.117.052.22.131.309"/></g></g></svg>