<svg enable-background="new 0 0 100 100" height="100" viewBox="0 0 100 100" width="100" xmlns="http://www.w3.org/2000/svg"><g id="Layer_2"><path d="m62.25 55.208c-.2 1.223-1.93 1.531-2.75 2.378-.805.832-.801 2.168-2.104 2.269-.188.624-.442 1.455-.125 2.082 3.339-.174 1.544 3.252 1.481 4.897-.021.568.099 1.327-.003 1.847-.139.705-.638 1.202-.662 1.806-.012.28.299 1.075.314 1.472.021.529-.219 1.227.187 1.662.355.382 1.32.264 1.792.679.382.335.349.978.77 1.259.32.214 1.1-.008 1.475.14.664.262.772.907 1.278 1.263 1.11.781 2.215-.03 3.065 1.372.633 1.045.664 2.063 1.656 2.844.319.252.972.376 1.222.675.422.503.182 1.368.547 1.744.812.834 2.097.037 3.104.982 1.006.944.832 1.867.878 3.131.04 1.098.595 1.338.769 2.201-.259-.143-.379.119-.769.049l-52.499.333.499-24.958c-.689-1.209-3.369-1.646-3.909-3.369-.312-.992 1.022-2.32 1.69-3.256.724-1.013 1.178-1.207 1.219-2.597.018-.601-.101-1.107-.156-1.675-.077-.801.205-2.022.037-2.74-.21-.899-.674-1.499-.881-2.485-.276-1.313-1.223-2.008-1.031-3.35.166-1.167.775-2.088.031-3.153l.125-9.625c.079-.727-.765-1.394-1.121-2.125-.389-.795-.263-1.635-.467-2.5-.389-1.643-.68-3.458-.787-5.253-.048-.796-.326-1.99-.1-2.756.265-.893.781-1.18.85-2.21.091-1.38-.194-1.507-.847-2.437-.613-.874-.751-1.034-.403-2.219l19.037.625v-4.5c1.662.001 2.946.072 3.432 1.875.252.938-.034 1.775.153 2.726.167.844.598 1.412.753 2.275.218 1.212-.044 1.304 1.254 1.784.903.334 1.688.349 2.628.466 1.335.166 2.915.525 4.224.894-.106 1.705-.078 1.629 1.489.885.953-.453 2.186-1.008 3.155-1.281 1.155-.325 2.601.108 3.627.628.358.182.618.586.991.755.413.187.921.019 1.372.266-.344.397-.824.765-.824 1.303.467.093 1.225-.313 1.584-.188.528.185.793 1.054 1.034 1.487.635 1.138.535 1.266 1.337.503.361-.343.007-.587.504-.884.169-.101 1.184-.05 1.368-.007.813.187 1.94.806 1.9 1.744.725.042 1.762-.177 2.353.292 1.116.885.289 1.999 2.101 1.755 2.015-.271 3.544-2.137 5.382-2.768-.077.279.023.558-.091.831.512.242.967.559 1.01 1.147 2.211-.266 4.295-.118 6.475.27.975.173 1.41.894 2.222 1.152.959.306 1.038.665.003 1.188-1.11.561-2.323.833-3.469 1.375-2.76 1.307-5.591 3.016-7.787 5.184-1.891 1.867-3.458 3.984-5.493 5.747-1.985 1.719-3.622 3.812-5.569 5.54z"/></g></svg>