<svg enable-background="new 0 0 100 100" height="100" viewBox="0 0 100 100" width="100" xmlns="http://www.w3.org/2000/svg"><g id="Layer_2"><path d="m69 88.5-1.125-28.621 3.519-49.683.106-.446c.008.16-.027.309-.106.446.429-.726.196-1.392-.017-2.043-.107-.33-.624-1.287-.971-1.559-.727-.573-2.575-.422-3.531-.594l-27.375 1.125c.164-.269-.121.74-.553 1.256-.351.418-.743.567-1.072 1.01-.479.646-.363 1.319-1.223 1.738.222.923.104 1.812-.399 2.635-.321.523-.668.141-.887.874-.422 1.415.877 1.933-.116 3.49-1.191-.415-1.651-.05-2.854.142-.169.55-.678.858-.902 1.334-.235.5-.043 1.109-.257 1.659-.289.742-.899.681-1.265 1.227-.388.578-.369 1.33-.495 1.995-.738.024-1.08.592-.702 1.224.121-.02.208-.062.331-.068.058 1.063.14 3.728-.863 4.392-.69.457-1.711-.277-1.977.767-.046.18.251 1.329.264 1.605.021.442-.084.905-.03 1.35.071.593.05 1.934.231 2.378.319.78.835.716 1.021 1.599.332 1.57-.938 2.402.49 3.739-.318.078-.687.351-.991.373 1.336.608.953.886.368 1.933-.504.902-.487 1.339-.491 2.238-.007 1.634.621 3.047.99 4.385.207.748 1.002 2.054.394 2.809-.503.624-1.688.294-2.248.771-1.062.905-.791 2.103.242 2.308.521.104 1.177-.489 1.872-.177.017.179-.072.669-.146.828-1.444-.397.048 3.309-1.735 3.858-1.229.379-1.07-.562-2.2.667-.323.352-.72 1.159-1.149 1.17-.057.716-.239 1.506-.634 2.006-.422.533-.613-.406-.89.58-.207.736 1.067 1.848-.23 2.305-.162.606-.898 1.184-.903 1.862-.004.507.525.643.492 1.224-.112.016-.228-.005-.338.025-.032.478-.005.967-.037 1.446-.573.271-1.736.654-1.969 1.4 1.098.803-.05 1.887.266 2.646.331.796 1.804.696 1.972 1.25l27.123.247c.254.731-.26 1.585-.619 2.247-.509.938-.704 1.412-.874 2.509-.18 1.154.403 3.746 1.381 4.503.114.088.806.173 1.114.494.486.503.24.768.491 1.375.26.629.54.78.76 1.378.153.417-.132.832.154 1.211.564.75 1.996.618 2.595.15.728-.568.505-1.338 1.107-1.972-.881-.149-1.139-.981-.353-1.537.83-.587 1.31.232 1.875.519.366.186.107.453.612.505.379.04.758-.507 1.134-.605.484-.126.772.048 1.122.006.035-.004.575.076.68.071.234-.011.436-.431.691-.489.614-.139 1.486-.013 2.123-.013.751 0 .547-.293 1.229.172.455.311.37.753 1.03.977 1.026.348 1.556-.557 2.25-.521 1.032.053 1.09 1.219 2.356.497.041-.22.133-.388.142-.602z"/></g></svg>