<svg enable-background="new 0 0 100 100" height="100" viewBox="0 0 100 100" width="100" xmlns="http://www.w3.org/2000/svg"><g id="Layer_2"><path d="m22.375 81.375c-.039.092-.079.072-.125 0l-.25-42.125c.191.017.322-.073.364.106-.409-.359-.95.059-1.236-.123-.442-.28-1.087-1.163-1.405-1.574-.768-.992-1.084-1.465-1.116-2.765-3.279-.07-2.38-3.068-.472-4.747.863-.761 1.396-.632 1.146-1.8-.121-.566-.379-1.032-.913-1.259-.7-.298-.962.269-1.396.289-1.591.074-4.048-2.371-4.878-3.725-.349-.569-.136-.947-.342-1.396-.383-.839-.457-.502-1.1-1.035-1.195-.993-.553-1.554-.671-2.953-.706-.35-2.427-.64-2.106-1.519l49.25-1.25c.927.973 1.956 1.53 2.844 2.265 1.6 1.324.424 1.86.182 3.366-.107.667.196 1.08.227 1.719.029.601-.309 1.277-.105 1.896.313.954.891 1.98 1.354 2.878.548 1.061 1.109 1.962 1.872 2.869 1.126 1.341 2.392 1.858 3.655 3.034.921.857 2.379 1.686 3.072 2.722.865 1.291.276 2.995.904 4.381.49 1.082 2.086 2.145 3.124 1.653.768-.364.444-1.139 1.656-.884.71.149 1.199.854 1.591 1.365.099-.093.283-.18.369-.255 1.838 2.014-.543 1.444-.226 3.222.118.031.22.005.338.037.069.581-.295.862-.447 1.354-.227.732-.048 1.246-.152 1.981-.153 1.075-1.366 2.196-1.419 3.248-.049.973.976.934 1.638 1.805.771 1.014 1.093 1.544 2.274 2.095 2.023.941 4.175 2.061 5.973 3.53.7.573 1.88 1.359 2.154 2.222.291.914-.389 2.454.638 3.117-.847.98-.942 1.638-.871 2.983 1.65.431 1.852 4.818 3.45 2.765.205.462.285.974.303 1.479 1.922-.1 1.078 1.012.825 2.182-.416 1.92-.931 3.013-2.368 4.478.048.106.12.135.162.244-.154.236-.483.498-.772.583-.471-1.475-2.422-1.94-2.378-.108.002.064.49 1.055.541 1.375.095.591.083.748-.034 1.394-.245 1.355-1.131 2.163-1.503 3.388-.076.25.243.7.103 1.111-.147.432-.767.918-.972 1.257l-7.25-.125c-.262-2.053 1.875-2.25 2.909-3.744 1.081-1.562-.622-2.915-1.909-3.756z"/></g></svg>