<svg enable-background="new 0 0 100 100" height="100" viewBox="0 0 100 100" width="100" xmlns="http://www.w3.org/2000/svg"><g id="Layer_2"><g><path d="m76.333 51.333c.026.667-.241 1.333-.646 1.796.717.676-.256 2.554-.559 3.529-.549 1.768-.644 3.045-.466 4.84.148 1.499.208 2.947 0 4.472-.19 1.398-.81 2.921-.639 4.337 2.15.467-2.124 2.973-.841 4.525-1.055 1.359-2.515-.714-3.521-1.296-1.37-.793-2.827-1.128-4.158-2.033-1.441-.98-8.435-4.231-6.479-6.163-.418-.82-1.381-1.976-1.988-2.675-.617-.709-2.21-1.16-2.37-1.833l-44.667-1c.276-1.217-.277-1.76.499-2.829.399-.549 1.413-1.74 1.992-2.18 1.601-1.216 4.836-1.341 5.205-3.967.903-.042 1.312-.731 1.782-1.395-.364-.761-.919-1.455-1.174-2.268-1.202-.12-1.312-3.703-.479-4.369.215-.172 1.754-.355 2.174-.538.763-.331 1.196-.688 2-.788 1.394-.172 3.143-.03 4.463.037 1.457.073 3.505.104 4.717.926.351.238.951 1.254 1.309 1.341 1.136.278 1.159-.803 2.012-.982.574-.121 1.801.12 2.513.045.815-.086 1.751.061 2.487-.024 2.441-.283 2.281-2.818 4.328-3.521 1.293-.444 3.091 1.105 2.635-1.618-.093-.554-.302-.953-.767-1.233-.034-1.147 1.45-1.131 1.682-2.12.365-1.558-1.454-.943-2.086-2.017-1.101-1.871.78-1.84 1.708-2.53.431-.321.676-.991 1.042-1.262.474-.352.59-.276 1.125-.542.641-.317.863.062 1.503-.538.42-.391.331-.999.618-1.46.66-1.059 1.683-2.729 2.574-3.545 1.643-1.502 3.846-2.633 5.685-3.763 4.571 1.221 10.255-.001 14.903-.525-2.31.124 1.585 4.379-.311 5.508 2.642 2.412.32 5.238.194 7.821-.078 1.608.213 3.283.121 4.662-.03.458-.638 1.644-.424 2.008.532.909 1.226.195 1.571-.47-.057.068-.127.114-.211.138.73.329.738 1.108 1.086 1.652z"/><path d="m67.5 81.5c.104.264.027-.471.025-.641.254-.012.527-.04.782-.05.028.036.032-.484 0-.447-.437-.099-.524-.362-.823-.529.642-1.021 1.965-1.007 2.648-1.833.622-.752.114-1.961 1.366-2.316.474 1.59 1.232.975 2.034.492 1.18-.711.867-1.229 2.467-1.013 1.691.229 1.536.623 3.184-.329 1.209-.699.508-.586 2.146-.376.957.123 1.95.173 2.843-.283.943-.481 1.298-1.33 2.145-1.837 1.364-.817 1.357.01 2.63.337 1.141.292 2.36-.316 3.528-.15-.008 1.299-4.479 2.261-5.688 2.929-2.078 1.149-4.198 1.748-6.463 2.55-2.35.832-4.529 1.51-6.958 2.041-1.099.241-5.261 1.742-5.866 1.121"/></g></g></svg>