<svg enable-background="new 0 0 100 100" height="100" viewBox="0 0 100 100" width="100" xmlns="http://www.w3.org/2000/svg"><g id="Layer_2"><path d="m56.875 91.477c.54-1.301 1.06-.726 2.253-1.153 1.097-.393.84-.749.885-1.949.808-.309 1.416-.003 2.105-.578.736-.614.697-1.487 1.623-1.819.463-.166 1.05.072 1.543-.091.241-.08.99-.641.994-.641 1.174-.162.892 1.091 1.822.969.543-1.259.894-2.664 1.562-3.868.472-.85 1.467-1.354 1.062-2.335-.402-.975-2.267-1.553-2.728-2.504-.502-1.036.815-2.228.103-3.255-.186-.269-.636-.146-.847-.432-.234-.318-.293-.815-.494-1.094-.629-.873-1.483-1.137-2.259-1.619-.518-.322-1.035-.571-1.127-1.256-.12-.881.485-.85.734-1.403.395-.88.225-2.019.421-2.953l-3.242-56.973c-.287 1.561-1.967 2.377-3.16 1.175-.577-.582-.34-1.112-1.278-1.103-.676.006-1.293.659-1.499 1.249-.125-.17-.367-.213-.49-.477-2.536.526-.419 2.167-1.265 3.867-.338.68-1.437 1.128-1.608 1.865-.127.549.399 1.474.373 2.104-.316-.02-.647.215-.974.166.325.704-.303 1.169-.141 1.856.137.582.791.689.915 1.112.334 1.137-.63 1.197-1.064 2.013-.416.782-.254 1.356-.942 2.131-1.294 1.456-1.197 1.761-.153 3.366.659 1.012 1.433 2.576 1.133 3.739-1.219-.55-1.875 1.195-.905 1.312.27 2.205-1.192.836-2.328 2.448-.245.347.068 1.048-.425 1.359-.446.281-1.036-.244-1.466-.091-1.545.552-.42 2.662-2.509 2.734-1.566.054-2.229-.816-3.756.598-1.095 1.014-.951 2.358-.744 3.771.227 1.546.203 2.401-.348 3.881-.411 1.104-1.121 1.867-1.278 3.001-.189 1.366.139 1.973-.723 3.031-.935 1.149-.889 1.334-.75 2.844.113 1.229.004 1.842-1.278 2.594-1.457.854-2.02.614-2.028 2.377-.005 1.098-.202 2.18-1.563 2.076.363.594.799 2.038.725 2.709-.038.35-.355.862-.503 1.125-.046.083-.532.016-.612.238-.098.271.126.558.078.783-.234 1.084.098 1.938.25 2.973.211 1.429-.31 1.293-.941 2.125-1.208 1.594.154 3.951-.41 5.625-.165.49-.597 1.241-.624 1.749-.022.427.4.808.383 1.119-.059 1.083-.727 1.297-1.74 1.403.408 1.432-.956 2.041-.766 3.353.094.647 1.069 1.908 1.731 2.02-.074.668.458 1.273.894 1.356z"/></g></svg>