<svg enable-background="new 0 0 100 100" height="100" viewBox="0 0 100 100" width="100" xmlns="http://www.w3.org/2000/svg"><g id="Layer_2"><path d="m67.856 20.088c.036.779-.405 1.51-.61 2.276-.56 2.097-1.152 4.175-1.497 6.376-.167 1.07-.518.829-1.125 1.487-.457.495-.479 1.009-.878 1.481-1.062 1.253-2.086.154-3.28.772-.863.446-.208 2.171-.744 3.1-.431.746-1.616 1.723-.847 2.902.625.96 2.012.056 3.127.247 1.088.187 1.789 1.177 2.854.619-.034-.252.099-.616.044-.858 1.904 1.93 1.292 3.521.875 6.153-.221 1.398-.133 2.778-.4 4.184-.258 1.355-.53 2.696-.82 4.044-.549 2.555-.708 5.278-1.086 7.89-.155 1.072-.264 2.319-.587 3.344-.438 1.387-1.524 2.396-2.287 3.622-.912 1.465-1.66 2.928-2.313 4.509-.671 1.625-2.324 2.819-3.756 3.878-.577.427-1.178 1.103-1.785 1.394-1.224.587-1.242.283-1.984 1.47-.571.911-1.347 1.359-2.011 2.165-.556.672-.457 1.053-.766 1.807-.652 1.587-1.946 3.194-2.859 4.665-.692 1.114-1.518 2.489-2.397 3.46-.975 1.076-2.565 1.401-2.979-.097-.285-1.031.334-2.313.847-3.275.605-1.136 1.579-2.088 1.409-3.469-.217-1.76-1.661-1.58-3.105-1.976-.431-.117-1.229-.543-1.644-.53-.849.026-.546.383-1.122.631-1.936.834-.755-1.031-1.591-2.137-.505-.669-1.677-.454-2.43-.832-.592-.298-.667-.725-1.132-1.152-.227-.209-.534-.519-.853-.605-.322-.089-.353.475-.623.36-.76-.322-.351-.489-.777-.98-.53-.61-1.613-1.056-2.009-1.75-.525-.922-.296-1.566-1.096-2.032-.532-.31-1.271.32-1.501-.878-.077-.402.366-1.955.403-2.6 1.643-.305-1.615-1.564-.998-2.753 1.711-.218 1.431-1.686 1.857-2.737.38-.938.807-2.086 1.873-2.746 1.207-.748 1.675-1.405 3.115-1.535 1.623-.147 3.151-1.102 4.74-1.013.026-.529-.002-1.074.022-1.609.047-1.035-.062-.718.594-1.566 1.156-1.495 1.333-1.617 3.028-2.059.958-.249.981-.755 1.75-1.255.662-.431 1.329-.438 2.034-.995.552-.437.907-.982 1.619-1.127.609-.124 1.123.444 1.634-.213 1.127-1.449-2.53-3.831-3.199-4.66-.579-.717-.938-1.872-1.458-2.503-.155-.188-.585-.142-.757-.366-.166-.216-.057-.54-.217-.759-.364-.495-.44-.778-1.059-1.091-.631-.318-1.669-.002-2.078-.656-.368-.588.08-2.101-.016-2.747-.158-1.069-1.4-4.338-2.625-2.112-1.317-1.081-1.059-6.067-.104-7.377 1.201 1.092 2.195-1.739 2.113-2.744.391.032.829-.062 1.219-.038.124-.918-.471-1.527-.825-2.355-.309-.725-.245-1.827-1.015-2.272.37-1.06.814-1.03 1.733-1.45.812-.371 1.15-.654 1.731-1.531.254-.384.024-.569.388-.966.233-.253.828-.433 1.128-.655.73-.544 1.048-.964 1.35-1.903.456-1.42.731-3.477 1.875-4.472.757-.658 3.158-1.831 4.153-1.376z"/></g></svg>