<svg enable-background="new 0 0 100 100" height="100" viewBox="0 0 100 100" width="100" xmlns="http://www.w3.org/2000/svg"><g id="Layer_2"><path d="m52.586 55.137 12.289 11.785c1.766.187 3.698-.538 5.356-.269.115-1.042 1.238-2.312 1.646-3.24.604-1.376 1.153-2.175 2.282-3.269 2.275-2.206 5.263-4.314 8.436-3.813.33.052.823.053 1.127.214.567.301.293.816 1.044.798 1.48-.036 1.406-2.275 1.984-3.092.479-.675 2.259-1.765.126-1.932-.821-.064-1.974.586-2.976.465-.838-2.163 1.979-1.842 1.955-3.465-.379-.151-1.285-.166-1.482-.507-.573-.99.612-1.467 1.377-1.518 1.516-.1 2.484 1.261 3.525.011.648-.779.733-1.637 1.509-2.389.697-.677.96-.734 1.098-1.845.06-.482.062-1.217-.104-1.653-.351-.919-.392-.594-1.027-.747-.94-.227-2.104-.375-3.375-.124-1.345.265-2.421.567-3.753.269-.308-.069-1.231.477-.731-.52.455-.904 1.923-.581 2.646-.747 1.446-.333 2.384-1.334 3.608-1.655 1.254-.329 1.564-.666 1.204-2.122-.139-.562-.45-1.978-.85-2.351l-56.375-.375c.392.416-.197.115-.5.375-.366.313-.399.048-.715.625-.362.662-.032 1.361-.438 1.975.053-.079-.896.409-.877.397-.196.118-.362.48-.593.628-.392.249-.815-.024-1.227.403-.173.18.046.651-.116.881-1.101 1.558-2.348-.878-3.93.395-.937.752-.626 1.595-1.979 1.571-.854-.015-1.02-.386-1.625-.891-.443.481-1.126.607-1.497 1-.559.593-.593 1.585-1.374 2.02-.648.36-1.672.086-2.406.462-.805.412-.769 1.283-1.467 1.665-.42.23-1.9.312-2.384.372-.648.08-1.142-.01-1.845.198-2.062.609-1.875 1.148-2.421 3.027-.387.074-.899.137-1.225.362-.846.588-.213.44-.629 1.29-.229.467-.446.431-.722.873-.147.237-.24 1.24-.281.746l13.126.252c.495.208 1.932-.274 2.507-.463.36-.118.557-.435.993-.536.395-.093.859.1 1.25.002 1.143-.284 1.466-.924 2.757-.878 1.379.05 2.752.148 4.12.278 1.592.15 3.248-.069 4.846.097 1.257.131 2.666.599 3.911.879 1.257.282 1.268.58 1.734 1.621.344.766 1.032 1.584.9 2.465z"/></g></svg>