<svg enable-background="new 0 0 100 100" height="100" viewBox="0 0 100 100" width="100" xmlns="http://www.w3.org/2000/svg"><g id="Layer_2"><path d="m92.779 75.726h-86.279l2.5-51.452 73.5 1.25c1.317 2.465 2.04 3.838 1.695 6.495-.281 2.172-.612 4.804-.389 7.006.252 2.484 2.128 3.762 3.131 5.999.956 2.134.592 4.197.806 6.244.187 1.794-.002 4.573.501 6.312.671 2.317 1.694 3.1 1.756 5.999.06 2.777.53 3.253 1.806 5.371 1.069 1.777 1.337 4.145 1.402 6.332-.104.187-.246.335-.429.444.134-.557.104-1.149.221-1.702"/></g></svg>