<svg enable-background="new 0 0 100 100" height="100" viewBox="0 0 100 100" width="100" xmlns="http://www.w3.org/2000/svg"><g id="Layer_2"><path d="m87.084 79.417h.084l-.668-25.417c-.061.13.158-.434.19-.639.719-.334.831-4.298.452-5.169-.519.07-1.088.171-1.618.287-.199-1.216-1.04-1.55-1.024-2.987.016-1.468.77-1.917 1.291-3.201.889-2.185 1.583-4.205 2.339-6.628.793-2.543 2.526-4.394 2.37-7.164-.14-2.476-3.625-2.661-4-5l-19.547.337c-.96.072-1.509.792-2.174 1.488-.649-.544-1.346-.171-1.987 0-.57.152-1.393.254-1.983.371-.92.184-1.719.728-2.654.97-.703.182-1.724.191-2.358.488-.795.371-1.146 1.663-1.926 1.857-1.172.292-.587-.426-1.538-.727-1.172-.372-3.398-.305-4.503.208-.839.389-1.404 1.693-2.509 1.316-.545-.186-.723-1.794-1.662-1.999-.459-.1-1.896.46-2.495.524-.894.095-1.557.216-2.393.496-2.103.703-3.453 2.026-5.429 1.846-1.533-.14-3.534.046-3.642-1.675-.05-.812.565-1.782.458-2.83-.103-1.004-.207-1.29-.531-2.134-.582-1.515-1.765-2.625-3.46-2.585-.654.015-1.319 1.001-2.012.394-.523-.458.224-1.566-.273-2.024-.711-.654-1.276.328-1.882.521-.992.316-1.922.46-2.982.175.229 5.235-1.122 10.23-1.342 15.358-.116 2.701.027 5.264-.806 7.889-.717 2.26-.846 4.458-1.203 6.753-.414 2.662-2.086 4.759-2.842 7.292-.362 1.215-.069 2.308-.28 3.56-.159.949-.74 1.761-1.086 2.636-.619 1.564-1.29 2.887-.58 4.497.735 1.668 1.265 2.109 1.075 3.95-.204 1.984.123 7.044 2.713 6.883z"/></g></svg>