<svg enable-background="new 0 0 100 100" height="100" viewBox="0 0 100 100" width="100" xmlns="http://www.w3.org/2000/svg"><g id="Layer_2"><path d="m82.667 29.667c-.056-.056-.111-.111-.167-.167l-62.5.167c0-.279 0 .112 0-.167l-.667-4.333c.222-.083-.814-.101-1.626.375-.573.335-1.666 1.867-1.898.316-1.43.023-1.928 1.735-2.967 2.483-.874.63-2.63.333-3.342 1.326l-1.5 42.833c0-.056 0-.111 0-.167v.167l68.667.667c.241-.476 1.145-1.335 2.133-.85.422-1.28 2.009-1.884 3.208-2.004.44-.044 1.038.287 1.667.187.645-.103 1.052-.427 1.658-.679 1.782-.74 1.691-1.705 2.997-3.029 1.102-1.116 2.841-1.338 3.82-2.325-.88-1.515-1.557-2.367-2.85-3.459-.255-.215-1.879-1.255-1.933-1.376-.433-.969.618-1.755.104-2.773-2.421-.405-2.399-1.627-2.278-3.995 1.655-.267 2.675-.864 2.187-2.696-.226-.85-1.027-1.184-.724-2 .239-.644 1.551-1.239 2.049-1.703 1.354-1.264 1.053-2.61 1.796-3.927.905-1.605 1.489-1.366-.325-2.554-.155-.102-.561.084-.883-.138-.299-.206-.311-.787-.581-1.057-.546-.546-1.065-.394-1.502-1.13-.701-1.182.165-2.317-.5-3.666-.16-.324-.684-1.05-.917-1.284-.602-.605-.702-.451-1.292-.837-.517-.338-.691-.257-1.3-.907-.438-.467-.254-1.203-.7-.963"/></g></svg>