<svg enable-background="new 0 0 100 100" height="100" viewBox="0 0 100 100" width="100" xmlns="http://www.w3.org/2000/svg"><g id="Layer_2"><g><path d="m80.667 43.167c1.119 1.184-.841 2.896-.667 4.5.156 1.428.888 2.467 1 4.038.122 1.71.046 3.652.5 5.295.218.79 1.719 3.846-.629 2.688-.33.975-.617 1.68-1.372 2.349-.97.858-2.449.947-2.191 2.608-1.693-.294-.678-2.811-.93-3.849-.413-1.698-1.377-2.553-1.378-4.492 0-1.938.178-3.395.638-5.142.377-1.435.739-3.686-1.138-3.663-3.302.042-1.894 6.375-2 8.496-.042.85-.344 2.126-.304 2.85.037.676.637 1.216.479 1.988-.268 1.308-.808.859-1.516.8-.209-.018-.208-.762-.655-.815-.313-.038-.762.528-1.041.645-2.21.932-.971 1.606-1.938 3.158-.887 1.423-4.313 1.473-4.367-.449-.058-2.085 2.202-1.003 2.879-2.505.621-1.378-.695-2.514-.37-3.992.242-1.099.812-1.321 1.291-2.297.376-.765.078-1.974.493-2.593.241-.36 1.055-.505 1.423-1.081.326-.511.307-1.427.459-2.037.441-1.77 1.052-2.547 2.495-3.704.609-.489 1.054-.975 1.833-1.133.442-.09 1.833.445 1.999.35.114.019.221.003.323-.047-.337-.866-.081-1.886.212-2.774 1.021-.226 1.842.313 2.638.613.136.051.364-.41.67-.283.269.111.286.486.538.603.44.204.559.5.82.848.417-.051.409.166.638.361"/><path d="m63 56.5c.674-1.159.019-5.945-1.509-3-.578 1.114-1.289 5.159.146 5.695-.108.884-.971 1.499-1.266 2.342-.296.846-.227 1.85-.179 2.783 1.095-.712 2.142-2.665 2.512-3.945.426-1.477-.446-2.964.463-4.375"/><path d="m64.833 44.167c.091-.377-.002-.829-.155-1.159-.931-.27-1.504.223-1.516 1.159-.012 1.069.819.916 1.3 1.543.972 1.267-.092 3.646.729 4.632 1.394 1.675 1.772-2.393 1.267-3.308-.376-.682-.922-.964-1.255-1.7-.324-.716.217-1.312-.675-1.696-.041-.215-.001-.42-.028-.638"/><path d="m47.5 92c.015-.751.863-5.133-.879-3.37-.686.694-.207 1.584-.572 2.378-.414.899-1.683 1.391-2.054 2.496-.629 1.875.524 3.601 2.514 2.458 1.344-.772 1.465-4.36.825-4.129"/><path d="m29.167 7c-.148.044-.07-.072 0-.167l31.833-.5c.046.019.457.214.167 0l1.833 11.834c-.51.01 1.042.18.529.161 1.032.47.975-.143 1.812.494 2.153 1.636-.274 7.656.317 10.011.83 3.303 3.839 2.054 5.471 4.497.728 1.09 2.095 2.879 2.287 4.208.187 1.291-.399.846-.72 1.955-.196.677.191 1.202.137 1.842-.074.888-.778 4.337-2.174 3.845-.685-.241-1.131-2.6-1.788-3.162-.216.839-.43 2.108-1.004 2.633-.315-.776-.245-1.792-.2-2.658.024-.467-.124-.822-.041-1.199.073-.33.684-.71.683-.959-.003-1.003-1.735-3.154-2.842-3.3-1.92-.254-3.097 1.589-3.133 3.3-.012.554.395 2.208-.159 2.474-1.007.485-1.464-1.116-1.367-1.782-1.514-.079-3.884-.65-4.142.975-.441 2.784 1.682.979 2.812 1.026-.469 1.929 1.123 6.487-.17 7.986-.647.751-2.468-.361-2.641 1.497-.047.509.699 2.524.95 2.991.9 1.676 1.206 1.165.879 3.333-.179 1.19-.283 2.291-.537 3.491-.203.959-.258 2.574-.744 3.38-.658 1.093-1.576 1.078-1.728 2.463-.072.659.566 1.234.35 2-.23.812-.877.958-1.374 1.629-.478.646-.417 1.332-1.126 1.707-.41.217-1.817.056-2.328.005-1.681-.166-3.038-.726-4.676-.138-1.775.638-3.644.892-5.337 1.628-.873.38-1.802.613-2.705.955-1.125.427-1.515 1.213-2.454 1.724-.912.496-2.939.392-4 .498-1.557.154-3.032.055-4.504.491-.728.215-1.003.379-1.537.629-3.597 1.685-.355-1.277.379-2.629.766-1.41.203-3.144.642-4.8-1.082-.577-1.305-1.715-1.125-2.841 1.266-.227 3.754-.152 3.475-.192z"/></g></g></svg>