<svg enable-background="new 0 0 100 100" height="100" viewBox="0 0 100 100" width="100" xmlns="http://www.w3.org/2000/svg"><g id="Layer_2"><path d="m68.833 69.667c1.082.831 7 4.465 6.691 1.525 2.847-1.181 5.97-1.22 8.512.596 1.281.916 2.652.607 3.675 1.667.98 1.016.754 3.501 2.797 3.386 1.949-.109-.246-2.113-.712-3.187-.653-1.507-.572-2.175.246-3.655 1.167-2.108.994-2.6-.038-4.333-.466-.783-.403-.728-.541-1.836-.044-.357.256-.651.219-1-.056-.533-.737-.16-.686-.818.025-.329-.065-.68.029-.999.396-.038.733-.219 1.111-.216.336-.265-.086-.026-.137-.13l-.833-26c-.044-.22-.143-.421-.196-.641-2.59.199-2.126-2.789-3.959-2.899.011-1.909 3.17-3.118 2.655-4.959l-75.666-.835c-.045.012-.119.025 0 .167l-2.333 42.333c.056.056.111.111.166.167z"/></g></svg>