<svg enable-background="new 0 0 100 100" height="100" viewBox="0 0 100 100" width="100" xmlns="http://www.w3.org/2000/svg"><g id="Layer_2"><path d="m53 25c-.332-.132-.353-1.825-.625-2.495-.405-.993-1.34-1.328-.9-2.638-.869-.738-2.211-.421-2.337.782-.853-.264-1.324-1.183-1.163-2.124-.986.134-2.18.292-2.141-1.025l-20.167-.5c-2.894.554-5.597 2.041-8.495 2.505-1.014.162-2.75.584-3.718 1.446-1.413 1.255-1.797 3.388-3.937 3.916.066 1.482-1.255 1.992-.492 3.372.53.958 1.885 1.17 2.805 1.549 1.193.492 2.056 1.837 3.17 2.212.636.214 1.377-.207 1.962.155.705.436.632 1.354.908 2.013.557 1.325 1.617 2.161 2.129 3.492.34.883.421 1.76.791 2.638.451 1.068 1.075 1.31 1.745 2.079.533.611.472 1.256.918 1.836.432.562 1.306.734 1.878 1.122 1.23.833 2.056 2.059 2.787 3.362.252.45.535 1.636.913 1.967.668.585 1.104.407 1.967.713 1.406.498 2.698 1.9 2.979 3.299-.633.094-1.286.457-1.461 1.167 1.649.674 1.606 2.08 2.483 3.359.873 1.272 2.473 1.732 3.833 2.43 1.87.959 2.181 1.599 2.871 3.664.711 2.127 2.148 3.904 2.007 6.077-.063.985-.496 1.091.122 2.101.318.52 1.418 1.054 1.841 1.695 1.021 1.544 1.669 3.69 1.955 5.504.338 2.147.345 1.572 2.167 1.984.976.221.613.877 1.858.353.983-.414 2.078-1.882 2.688-2.714.385-.526.832-1.779 1.362-2.1.452-.274 1.22.035 1.746-.23 1.035-.523 1.746-2.589.4-3.15.719-2.476 3.127-1.034 4.895-1.634 1.063-.361 1.477-1.548 2.317-1.978 1.019-.521 1.816-.176 2.913-1.079 1.727-1.423 2.743-3.45 4.821-4.125 2.875-.935.12-1.423 1.912-3.166.935-.91 2.136-.3 2.971-.651.676-.285.946-.961 1.488-1.516 1.32-1.351 2.021-2.833 2.679-4.663.462-1.285.49-2.051 1.487-3.342 1.038-1.344 2.219-2.596 3.379-3.833 1.215-1.296 2.781-2.691 4.455-3.325l-18.666-19.671c-.045.012-.119.025 0 .167z"/></g></svg>