<svg enable-background="new 0 0 100 100" height="100" viewBox="0 0 100 100" width="100" xmlns="http://www.w3.org/2000/svg"><g id="Layer_2"><path d="m65.5 58.833c.827-.368.901-1.539.859-2.475 1.083.007 2.464-.932 3.146-1.696.296-.333.414-.966.78-1.37.606-.67 1.389-.125 1.403-1.271 1.181.103 2.119-.199 3.012-.688.84-.46 1.65-2.134 2.292-2.34.639-.206.835.763 1.517.515.757-.275.429-1.047.862-1.515.827-.894 2.651-.714 2.654-2.134 1.036-.334 1.702.365 1.366 1.324 1.04-.043.866-.685 1.405-1.183.573-.529.636-.564 1.37-.87 1.189-.495 2.113-1.03 3.134-2.176.458-.514 2.143-2.128 2.244-2.75.232-1.421-1.615-.878-2.544-1.871h-59c.31.652.105 1.324-.196 1.975-3.181.174-6.381.237-9.508.358-1.389.054-3.18-.42-4.463-.204-1.564.265-1.697 2.317-2.292 3.878-.347.91-.419 1.26-.549 2.343-.109.911-.039.848-.658 1.816-.394.616-.837 1.481-1.334 2.167-.508.702-1.596 1.111-2.003 1.708-.63.922-.387 2.48-.375 3.661.009.886.586.625-.289 1.463-.565.543 57.167 1.335 57.167 1.335z"/></g></svg>