<svg enable-background="new 0 0 100 100" height="100" viewBox="0 0 100 100" width="100" xmlns="http://www.w3.org/2000/svg"><g id="Layer_2"><path d="m49.5 21c-.121.418-.234.839-.34 1.262.999.769 1.839 1.731 2.972 2.116.285.097.616-.22.843-.105.238.121.22.546.465.728.951.706 1.461.717 2.592.962 1.536.333 3.383.632 4.774 1.288.748.352 1.473 1.228 2.173 1.502.627.246.726-.187 1.514-.102 1.311.141 2.003 1.499 3.535 1.129.64-.154 1.12-.813 1.723-.943.844-.181 1.271.318 2.002.634.582.251.788.526 1.491.375.839-.179.747-.704 1.379-1.155 1.16-.83 3.295.042 4.781-.186 1.542-.236 2.612-.369 3.993.635 1.516 1.101 1.722 2.167 3.707 1.879.632 1.11.032 2.585.144 3.833.149 1.681.661 2.923 1.104 4.498.472 1.681.166 2.969 1.056 4.524.655 1.146 1.301 2.41 1.75 3.618.458 1.231 1.229 2.579 1.469 3.757.269 1.318-.18 2.785-.65 3.991-.558 1.429-.699 3.51-1.78 4.633-.889.923-2.979 2.055-4.304 1.863-.047-.924.257-1.718-.641-1.988-.863-.259-1.797.654-2.012 1.405-.488 1.708 1.738 1.9 1.108 3.467-.918 2.282-4.642 3.868-6.834 4.387-1.438.34-3.143.302-4.619.385-.156 1.475-1.503 1.705-2.14 2.579-.536.736-.482 2.021-1.12 2.645-.523.513-.988.2-1.384.505-.745.576-.674 1.473-.872 2.481-.188.959-1.228 1.778-1.265 2.399-.014.229.595.267.646.484.068.298-.129.496-.141.756-.023.526-.392.888-.378 1.392.021.762.766 1.866.982 2.618.295 1.025.476 1.992.812 2.993.388 1.154.778 1.328 1.703 2.115-.115.825-1.391.925-2.118.763-1.008-.224-1.813-1.388-2.862-1.63-.764-.177-1.326.367-2.004.384-1.022.025-1.095-.517-1.878-.977-2.174-1.278-4.001-1.655-5.372-4.021-.83-1.432-1.067-3.021-2.003-4.383-.365-.527-.48-.995-.751-1.495-.338-.625-.457-.677-1.128-1.188-1.421-1.082-1.761-2.326-2.278-3.968-.512-1.623-1.547-2.954-2.125-4.566-1.042-2.909-3.062-4.869-4.969-7.15-.646-.773-.523-.949-1.497-1.249-.751-.231-1.592-.14-2.359-.247-.665-.093-1.337-.164-2.021-.256-.744-.101-.714-.279-1.473-.635-2.738-1.283-3.805 2.142-4.678 4.006-.359.766-1.705 2.166-2.598 2.384-1.314.322-1.977-1.155-2.866-1.787-2.415-1.715-5.146-2.955-5.88-5.969-.257-1.056-.623-2.043-.885-3.125-.159-.657.012-1.278-.363-1.906-.378-.632-1.239-1.049-1.759-1.591-1.78-1.859-4.043-3.348-5.719-5.253-1.069-1.216-3.938-2.89-3.278-4.625l23.126 1.125c-.266.277.892-34.818.875-34.75l19 .375v.125z"/></g></svg>