<svg enable-background="new 0 0 100 100" height="100" viewBox="0 0 100 100" width="100" xmlns="http://www.w3.org/2000/svg"><g id="Layer_2"><path d="m22.013 10.337c-.16.762-1.151 1.244-1.392 1.95-.508 1.496.266 1.008.68 1.913.424.926.22 1.349.125 2.134-.25 2.072-1.205 3.735-1.088 5.666.125 2.077 1.788 3.314 1.857 5.139 2.606 1.775-1.343 3.14-1.236 4.569.031.403.736.493.882.951s.03 1.336-.045 1.805c-.158.994-.525 2.179-1.601 2.562-.678 2.276-1.631 4.442-1.371 6.817.222 2.024 1.529 3.979 1.347 5.992-.122 1.34-.064 1.84.12 3.045.231 1.513-.35 1.438-1.007 2.622-.669 1.205-1.342 5.224.557 5.478.371-1-.244-2.701 1.325-2.324.911.219.836 1.379 1.155 1.845.509.744.714.447 1.012 1.334.371 1.106.054 3.203 0 4.375-.137 2.983-.357 5.926-.496 8.963-.124 2.705-.023 5.503-.17 8.329-.123 2.353-.54 5.271-.5 7.333l22 .333c.63-.68-1.23-1.485-1.671-2.33-.373-.715-.294-1.126-.153-1.829.125-.624.636-1.092.703-1.464.085-.471-.329-1.102-.215-1.541.204-.784.714-.842 1.137-1.5.621-.964.993-2.457 1.041-3.542.062-1.402-.375-2.825-.178-4.296.216-1.626 1.138-3.058 1.169-4.666.056-2.891-.795-7.354.959-9.995.512-.771 1.161-.83 1.544-1.505.366-.645.106-1.604.285-2.333.179-.731.736-1.232 1.046-1.663.545-.758.977-1.614 1.5-2.471.848-1.388 1.672-2.599 2.466-4.041.857-1.557.005-2.955.866-4.617 1.062-2.051.79-3.124 1.139-5.053.238-1.316-.759-2.915-.271-4.155.605-1.538 3.1-2.428 4.475-2.546.737-.063.981.36 1.789-.239.795-.588.596-1.667 1.366-2.019.895-.408 1.496.641 2.629-.363.746-.661 1.086-1.487 1.058-2.47.959-.111 1.529-.925 1.458-1.837-.308.017-.747-.188-.971-.18.543-.647 1.559-1.072 1.632-1.816-.723-.279-1.179-2.756-1.429-3.529-.713-2.207.36-2.638 1.259-4.496.511-1.054.85-3.009 1.073-4.134.181-.915-.205-2.6-.541-2.87l-48.167.5z"/></g></svg>