<svg enable-background="new 0 0 100 100" height="100" viewBox="0 0 100 100" width="100" xmlns="http://www.w3.org/2000/svg"><g id="Layer_2"><g><path d="m5.5 62.125c.197.218-.089-.12-.022-.004.615-.032 1.457-.258 2.022-.493.226-.094.804-.466 1-.509.312-.069.884.101 1.125.018.948-.326 1.912-1.167 2.527-1.667.758-.616 1.972-1.348 2.601-2.219.416-.576.503-1.275 1.019-1.75.628-.578 1.914-.944 2.735-1.247 2.06-.76 3.354-2.188 5.233-3.343-.135.953-.93 1.564-.466 2.593.363.807.899.86 1.601 1.119.313.116.835 0 1.103.147.304.167.244.861.639.993.667.223 2.081-.753 2.724-.917 1.011-.258 1.239.14 2.158.314 1.171.223 1.588-.343 2.475-.939 1.667-1.122 4.169-1.064 5.811-2.3.066.278.33.5.363.812 1.235.008 2.447-2.004 2.818-3.075.25-.719.231-1.436.385-2.134.05-.224-.275-.225-.09-.638.144-.319.992-.801 1.268-1.131 1.053-1.262 1.527-2.675 2.223-4.122.449-.934 1.298-1.607 1.756-2.509.314-.619.314-1.229.522-1.865.813 1.445 1.692 3.186 3.73 2.317 2.047-.872 2.327-3.901 3.873-5.345 1.05 1.591 4.063-2.521 4.634-3.239.666-.839 1.156-1.5 1.332-2.463.049-.273-.183-.791-.078-1.16.146-.516.805-1.024 1.099-1.483.932.598 1.353 1.566 2.51 2.117.348.166 2.424 1.406 2.615 1.38.909-.12.55-2.974 2.332-1.764.728.493.872 1.883-.062 2.162.49.665 1.155.339 1.856.46 1.232.213 2.425.793 3.374 1.616 1.146.993.601 2.504-.368 3.394-.479.439-1.076.376-1.469 1.003-.249.399-.439 1.386-.534 1.862-.503 2.539.739 3.346 2.79 1.675.144 1.044.562 2.315 1.704 2.712 1.304.453 2.411.027 3.506.875.931.721 1.972 1.645 2.875 2.478.625.576.692.062.753 1.141.035.63-.221 1.494-.393 2.108-.815-.069-1.317-1.035-1.857-1.605-.756-.799-1.496-1.351-2.513-1.778-.881 1.666-.296 1.516.922 2.553.633.539 1.056 1.239 1.682 1.878.582.595 1.818 1.158 2.162 1.847.405.812-.363 2.42-.993 1.036-.67.492-1.066 1.349-.302 1.844-.286.111-.505.438-.822.527.73.487.672 1.177 1.14 1.85.287.414 1.652.981.002 1.371-1.318.312-2.201-4.034-3.564-2.289-.713.913 2.729 3.17 3.567 3.384.766.195 1.097-.2 1.819-.072.258.045.216.668.648.733.299.045.875-.37 1.127-.496.654.708 1.136 1.323 1.531 2.237.34.786.299 1.745.094 1.375z"/><path d="m89.25 56.125c-.273-1.126-.491-2.192-.094-3.378.233-.696.533-.774.472-1.75-.047-.74-.306-1.478-.231-2.225.762-.242 1.447-.697 1.856-1.404.397-.687.232-2.201.838-2.749.413-.374 3.065-.749 3.544-.378.858.665.027 1.62-.633 1.915-.636.284-1.661-.068-2.16.461-.444.472-.217 1.518-.217 2.135.001 1.121-.037 2.148-.406 3.216-.335.968-1.032 1.477-1.312 2.438-.262.898-.084 2.385-1.531 1.718"/></g></g></svg>