<svg enable-background="new 0 0 100 100" height="100" viewBox="0 0 100 100" width="100" xmlns="http://www.w3.org/2000/svg"><g id="Layer_2"><path d="m90 64c1.095.799 2.447 2.428 2.808 3.639-.921.186-1.681.913-1.157 1.828-1.081.223-1.847.712-2.983.867-1.05.143-2.086.168-3.167.167-2.776-.003-5.407.191-8.171.33-5.455.272-10.537 1.34-15.979 1.695-.006.322-.187.482-.212.78-.617.135-1.369.043-1.971.233-.996.313-1.708 1.069-2.699 1.462-1.43.567-3.396.851-4.76.793-1.927-.082-1.992.282-3.57 1.207-1.38.808-3.036.667-4.474-.042-.753-.371-.824-.778-1.867-.962-.946-.167-2.091.026-3.009.208-1.566.31-2.862.937-4.25 1.667-1.284.675-2.548.752-4.364.592-1.962-.173-3.899-.623-4.507-2.5-.646-1.997-1.003-4.249-2.358-5.967-1.194-1.514-3.839-2.186-5.622-1.68-.2-2.179-1.045-2.154-3.021-2.149-1.546.003-3.835-.12-3.329-2.17.16-.646.881-.997 1.161-1.663.284-.676.236-1.358.505-1.996.209-.496 1.189-1.258.836-2.013-.337-.722-1.156-.576-1.674-.126-.388-.646-.611-1.558-.983-2.2 1.345-.735 3.036-.795 1.779-2.665-.372-.554-.989-.796-1.467-1.172-.989-.777-.757-.395-1.163-1.837-.403-1.433-1.354-2.48-1.675-3.991-.352-1.66-.037-3.17-.82-4.792-1.249-2.585-3.041-5.332-2.342-8.208.497-2.048.465-2.747 2.513-1.871 1.329.569 2.385 1.407 3.667 2.211 2.621 1.646 5.021 1.209 8.162 1.822.789.154 1.098.596 1.695.833.33.13.556.41.958.512.518.131.769-.576 1.003-.523.736.166 1.083 1.053 1.838 1.184.525.092 1.294-.339 1.671-.405.227-.217.402-.302.671-.458 1.513 2.629-.879 4.156-.491 6.518 1.034-.135 1.494-1.598 2.116-2.308.159 1.949-.008 3.671-.613 5.452.301.079.479.328.784.396-.003.016-.147 1.049-.183.971-.084-.187.556 1.255.557.867-.001.465-.577 1.346-.556 1.625.166 2.227 2.551.838 3.382-.324 1.344-1.88.225-2.027-.171-3.842-.302-1.387.479-3.815-.805-4.687-.1-1.02.904-1.533.933-2.471.023-.776-.693-1.342-.962-2.025-.748-1.902-.392-4.432-2.667-5.491-.226.348-.562.363-.704.836-1.681-1.38.743-3.773-.921-5.006 1.06-.01 1.318 1.189 1.955 1.189 1.013 0 1.065-.849.637-1.67-.374-.714-4.7-3.94-2.337-4.816.907 1.309 3.007-.005 3.538.815l57.835-1.669c-.053.106-.137.267.167.167z"/></g></svg>