<svg enable-background="new 0 0 100 100" height="100" viewBox="0 0 100 100" width="100" xmlns="http://www.w3.org/2000/svg"><g id="Layer_2"><path d="m62.833 31.833c.056.056.111.111.167.167z"/><path d="m44.833 31.667c-.051.123-.106.096-.167 0l18.334.333v2l.333 9.667c1.244.36 3.604-2.075 3.359-3.309 1.446.263 1.539-.549 2.3-1.367.495-.532 1.845-2.197 2.37-.854 2.249.426 2.66-3.649 4.114-3.779.163 1.746 2.828 1.689 3.724 1.775 2.027.195 2.282.699 2.943-1.268-.097-.023-.195-.043-.293-.061.758-1.544 1.85-.426 2.983-.797 1.068-.35 1.099-1.648 2.471-1.315.034.274.204.507.225.782.989.138 1.498.623 2.638.692 1.059.064 2.146-.161 3.153.196-.216.533-.751.976-1.177 1.308.544.297.92.95.886 1.634.534.23 1.399 2.545 1.471 3.195.152 1.382-1.337 2.8-1.861 3.975-1.647.462-3.117-2.076-4.305-2.966-1.651-1.237-3.15-2.728-4.975-3.487-.109 1.31.06 2.054-.313 3.187-.211.644-.586.974-.749 1.791-.12.602-.073 1.264-.33 1.788-.664 1.354-2.339 2.197-3.145 3.351-.325.465-.497 1.129-.785 1.569-.278.424-.84.714-1.066 1.263-1.688-.57-1.793 1.066-1.83 2.337-.97.051-2.375-.522-3.142-.433-.846.098-1.421.815-1.795 1.995-.375 1.184-.241 1.993-1.038 3.129-.355.505-1.068.972-1.337 1.5-.222.438-.101 1.338-.322 1.675-1.269 1.933-3.463.779-4.67-.467-1.56-1.609-3.294-2.865-3.363.434-1.179-.202-1.024 1.166-1.349 1.979-.381.957-1.299 1.824-1.796 2.708-.193.343-.12.922-.363 1.332-.275.463-.929.618-1.266 1.14-.531.822-.474 1.963-.909 2.823-.641 1.267-2.169 2.869-3.283 3.913-1.504 1.409-2.026 3.055-2.486 4.975.164.112.81.396.974.434.263-.562.683-1.031 1.188-1.404 1.444 1.817-3.034 5.206-4.517 5.625-.628.178-1.316-.216-1.705-.132-.689.148-1.042.699-1.621 1.095-1.67 1.141-2.196.637-3.675.217-2.577-.732-.392.901-1.367 2.12-.562.703-3.638 1.001-4.133 1.062-1.903.233-2.465.001-4.172-.686-1.952-.787-1.533.701-3.328 1.454-2.144.899-7.001-2.297-8.104-4.268.863-.836-.636-.501-.74-1.151-.121-.75.279-1.422.661-2.181-2.076-.25-2.886-1.479-4.483-2.706-1.141-.876-.624-1.084-1.208-2.449-.308-.719-1.319-1.752-2.099-1.725-.055-2.112-.059-1.843-1.066-3.451-.329-.525-.143-1.459-.448-1.979-.29-.493-.895-.395-1.3-.757-2.714-2.422.945-3.066 1.121-5.828.129-2.046-.758-1.715 1.334-2.342.729-.218 2.783-.508 3.133-.955.302-.386-.11-1.361.071-1.828.548-1.41.413-.363 1.305-1.017.461-.338.491.135.825-.816.23-.655-.037-1.621.104-2.312-.257-.021-.484-.201-.746-.227-.168-1.702.541-2.642 1.188-4.141.316-.733.762-3.334 1.446-3.711 1.388-.765 2.042 1.538 2.499 2.181.373.525.859.073 1.183.865.184.449-.044 1.255-.153 1.64.665-.036 2.299-1.644 2.328-2.462.023-.649-.686-.861-.686-1.508 0-.595.456-1.507.67-2.037.626-1.548 1.116-2.178 2.342-3.246.768-.669 1.951-3.39 3.132-3.025-.196 1.01.895 1.938 1.847 1.819 1.435-.18 2.118-1.852 3.17-2.481.511-.305.993-.058 1.458-.394.45-.325.759-1.366 1.078-1.799.688-.934 2.227-1.221 2.5-2.143 2.011-.671 1.373-3.431 1.629-5.019.207-1.277 1.03-1.93 1.354-2.964.319-1.019.328-1.98.696-3.046.639-1.848.77-3.368.792-5.333.013-1.21 1.318-4.234-.641-4.362-.237-1.159.877-2.043 1.799-2.1-.089.261.768.029.51.129v2l.5 19h.166z"/></g></svg>