<svg enable-background="new 0 0 100 100" height="100" viewBox="0 0 100 100" width="100" xmlns="http://www.w3.org/2000/svg"><g id="Layer_2"><path d="m75.334 86.05-34.667-.216c-.319-.041-1.261-1.424-2.038-1.787-1.106-.518-2.109-.409-2.967-1.38-1.504-1.702-2.54-5.273-2.304-7.474.584-.06 1.069-.178 1.613-.387.693-1.772-.572-1.755-1.147-3.138-.493-1.187-.592-2.856-.658-4.167-.129-2.549-.044-4.671-2.295-6.546-1.577-1.312-4.021-2.433-5.167-3.987-.484-.657-.277-1.138-1-1.832-.574-.551-.92-.651-1.546-.958-.509-.25-1.115-.264-1.49-.636-.525-.522-.344-1.546-.659-1.882-.688-.734-1.965-.474-2.975-.508-.266-.841-.558-1.548-1.237-2.117-.617-.515-1.534.081-1.604-1.172 1.478-.249.876-1.896.682-2.862-.322-1.604.018-1.994.296-3.5.241-1.305.001-2.219.501-3.291.279-.598 1.791-1.662.191-2.235.083-.43-.144-1.026-.054-1.461-.65-.001-1.15.101-1.783.132-.247-1.072.255-1.674.633-2.524.355-.799.5-1.583.797-2.491.887-2.72 3.261-1.39 4.582-3.121.883-1.157 1.45-4.417 1.463-5.846.009-.988-1.34-5.06.967-4.185 1.262-2.832 1.755-.101 3.895-.6 1.028-.239 1.795-.97 2.842-1.008.418-.016.807.369 1.126.3.694-.151.864-.617 1.504-.886.868-.365 1.905-.441 2.629-.785.688-.327 2.064-1.604 3.046-1.511 2.859.27-.255 3.129-.483 3.987.243-.013.537.03.782.049-.209.753-1.099 1.312-.949 2.284 1.499.074 1.216-1.753 3.146-1.016 1.185.452 1.771 1.289 2.995 1.578 1.708.404 2.34.421 3.166 2.092.37.749-.068.987.664 1.578.477.386 1.585.298 2.162.459 2.384.664 5.404.996 7.809 2.037.631.273 1.444.669 2.07.967.943.448.963.697 1.755 1.366 1.435 1.212 2.606.364 4.537.463 1 .052 2.981.081 3.8.704 1.131.86.381 1.818.229 2.938 2.114.114 2.455.057 3.299 1.868.363.779.69 1.403.667 2.342-.023.92-.899 1.523-.799 2.461 1.019-.413 1.625-.968 2.336-.103.861 1.045-.142 1.147-.378 2.292.02-.094.288 1.477.216 1.337.076.149.865.659.808.484.29.888.09 1.45.133 2.486-2.054-.247-2.289 1.337-3.271 2.863-.643 1-2.535 3.647-.417 4.137 1.687-1.366 2.313-3.9 4.046-5.021.956-.618 1.621-.158 2.37-1.28.573-.859.434-2.245 1.768-2.2.485-1.332.824-3.991 2.199-4.741.196 1.226.743 2.151.505 3.441-.249 1.35-1.311 2.165-1.883 3.316-.289.581-.19 1.239-.492 1.838-.388.77-1.107 1.252-1.458 2.042-.625 1.409-.603 3.126-1.014 4.633-.16.585-.609 1.106-.795 1.705-.239.769.089 1.895-.225 2.624-.7 1.627-1.93 2.168-2.142 4.029-.188 1.65.696 3.228.5 4.804-.21 1.685-1.384 2.508-1.629 4.3-.387 2.833-1.029 5.241.333 8.153.582 1.244 1.013 2.055.759 3.339-.263 1.338-.906 2.058-.295 3.426-.113.152-.279.191-.5.117z"/></g></svg>