<svg xmlns="http://www.w3.org/2000/svg" viewBox="0 0 32 32" id="Shopping-Cart--Streamline-Twemoji" height="32" width="32"><desc>Shopping Cart Streamline Emoji: https://streamlinehq.com</desc><path fill="#ccd6dd" d="M28.353955555555554 19.326044444444445H9.347911111111111L7.447288888888888 7.922399999999999h22.807288888888888Z" stroke-width="0.8889"></path><path fill="#66757f" d="M30.239377777777776 24.077599999999997h-20.906666666666666c-1.0396444444444444 0 -1.8854222222222223 -0.8467555555555555 -1.8854222222222223 -1.8854222222222223s0.8609777777777777 -1.915822222222222 1.900622222222222 -1.915822222222222l0.006666666666666666 -0.0009777777777777777 0.007644444444444444 0.0009777777777777777h18.991733333333332c0.46471111111111113 0 0.8609777777777777 -0.33644444444444443 0.9370666666666666 -0.7944888888888889l1.9005333333333334 -11.403555555555556c0.04657777777777778 -0.2756444444444444 -0.03128888888888889 -0.5568888888888888 -0.2128 -0.7707555555555555 -0.17964444444444444 -0.21288888888888888 -0.4447999999999999 -0.33546666666666664 -0.7241777777777777 -0.33546666666666664H8.223733333333332l-0.9883555555555557 -5.859555555555555C7.160355555555555 0.6630222222222222 6.7754666666666665 0.35991111111111107 6.340266666666666 0.3390222222222222 6.325066666666666 0.33617777777777774 6.314577777777778 0.31999999999999995 6.299377777777778 0.31999999999999995H1.745511111111111C1.2209777777777777 0.31999999999999995 0.7951999999999999 0.7457777777777778 0.7951999999999999 1.2703111111111112s0.42577777777777776 0.950311111111111 0.950311111111111 0.950311111111111h3.7498666666666667l2.7587555555555556 16.360444444444443c-1.5604444444444443 0.46844444444444444 -2.7073777777777774 1.9005333333333334 -2.7073777777777774 3.6111111111111107 0 2.0878222222222225 1.699111111111111 3.786044444444444 3.7859555555555553 3.786044444444444h20.906666666666666c0.525511111111111 0 0.950311111111111 -0.42479999999999996 0.950311111111111 -0.950311111111111s-0.42479999999999996 -0.950311111111111 -0.950311111111111 -0.950311111111111Zm-2.0564444444444443 -9.50302222222222h-3.1426666666666665l0.2594666666666666 -1.900622222222222h3.1986666666666665l-0.3154666666666666 1.900622222222222Zm-5.061333333333333 0h-3.320355555555555v-1.900622222222222h3.5798222222222225l-0.2594666666666666 1.900622222222222Zm-5.220977777777777 0h-3.320355555555555l-0.25937777777777776 -1.900622222222222h3.579733333333333v1.900622222222222Zm-5.238044444444444 0h-3.1426666666666665l-0.3164444444444444 -1.900622222222222h3.199733333333333l0.25937777777777776 1.900622222222222Zm-2.509777777777778 3.8011555555555554 -0.3164444444444444 -1.900622222222222h3.085688888888889l0.25937777777777776 1.900622222222222h-3.028622222222222Zm4.947288888888888 0 -0.25937777777777776 -1.900622222222222h3.059911111111111v1.900622222222222h-2.800533333333333Zm4.701155555555555 0v-1.900622222222222h3.0599999999999996l-0.2594666666666666 1.900622222222222h-2.800533333333333Zm4.720177777777778 0 0.2594666666666666 -1.900622222222222h3.0856l-0.3164444444444444 1.900622222222222h-3.028622222222222Zm4.610844444444444 -9.50302222222222 -0.3164444444444444 1.900622222222222h-3.255733333333333l0.2594666666666666 -1.900622222222222h3.3127111111111107Zm-5.2313777777777775 0 -0.2594666666666666 1.900622222222222h-3.8401777777777775V8.87271111111111h4.099644444444444Zm-6.000266666666667 0V10.773333333333332H14.060444444444443l-0.25937777777777776 -1.900622222222222h4.099555555555556Zm-6.018222222222222 0 0.2594666666666666 1.900622222222222H8.885155555555555l-0.3164444444444444 -1.900622222222222h3.3136888888888887Z" stroke-width="0.8889"></path><path fill="#e1e8ed" d="M9.347911111111111 27.878755555555557c0 2.1946666666666665 2.3757333333333333 3.566311111111111 4.276355555555556 2.4689777777777775 0.8821333333333332 -0.5092444444444444 1.425511111111111 -1.4504 1.425511111111111 -2.4689777777777775 0 -2.194577777777778 -2.3758222222222223 -3.5662222222222217 -4.276355555555556 -2.4688888888888885 -0.8821333333333332 0.5092444444444444 -1.425511111111111 1.4504 -1.425511111111111 2.4688888888888885" stroke-width="0.8889"></path><path fill="#292f33" d="M12.198844444444443 31.68c-2.0963555555555553 0 -3.801244444444444 -1.7048888888888887 -3.801244444444444 -3.801244444444444s1.7048888888888887 -3.8011555555555554 3.801244444444444 -3.8011555555555554 3.801244444444444 1.7047999999999999 3.801244444444444 3.8011555555555554 -1.7048888888888887 3.801244444444444 -3.801244444444444 3.801244444444444Zm0 -5.701866666666667c-1.0481777777777777 0 -1.900622222222222 0.8524444444444443 -1.900622222222222 1.900622222222222s0.8524444444444443 1.900622222222222 1.900622222222222 1.900622222222222 1.900622222222222 -0.8524444444444443 1.900622222222222 -1.900622222222222 -0.8524444444444443 -1.900622222222222 -1.900622222222222 -1.900622222222222Z" stroke-width="0.8889"></path><path fill="#e1e8ed" d="M22.652177777777776 27.878755555555557c0 2.1946666666666665 2.3757333333333333 3.566311111111111 4.276355555555556 2.4689777777777775 0.8820444444444444 -0.5092444444444444 1.4254222222222221 -1.4504 1.4254222222222221 -2.4689777777777775 0 -2.194577777777778 -2.3757333333333333 -3.5662222222222217 -4.276355555555556 -2.4688888888888885 -0.8820444444444444 0.5092444444444444 -1.4254222222222221 1.4504 -1.4254222222222221 2.4688888888888885" stroke-width="0.8889"></path><path fill="#292f33" d="M25.50311111111111 31.68c-2.0963555555555553 0 -3.801244444444444 -1.7048888888888887 -3.801244444444444 -3.801244444444444s1.7048888888888887 -3.8011555555555554 3.801244444444444 -3.8011555555555554 3.8011555555555554 1.7047999999999999 3.8011555555555554 3.8011555555555554S27.599466666666665 31.68 25.50311111111111 31.68Zm0 -5.701866666666667c-1.0481777777777777 0 -1.900622222222222 0.8524444444444443 -1.900622222222222 1.900622222222222s0.8524444444444443 1.900622222222222 1.900622222222222 1.900622222222222 1.900622222222222 -0.8524444444444443 1.900622222222222 -1.900622222222222 -0.8524444444444443 -1.900622222222222 -1.900622222222222 -1.900622222222222Z" stroke-width="0.8889"></path></svg>