<svg width="77" height="76" viewBox="0 0 77 76" fill="none" xmlns="http://www.w3.org/2000/svg">
<g filter="url(#filter0_dd_204_1238)">
<rect x="8.13721" y="6" width="60" height="60" rx="30" fill="white"/>
<rect x="8.13721" y="6" width="60" height="60" rx="30" fill="#E8ECE1" fill-opacity="0.1"/>
<path fill-rule="evenodd" clip-rule="evenodd" d="M33.2655 24.5761L47.9315 24.5761C48.8315 24.5761 49.561 25.3057 49.561 26.2057L49.561 40.8717C49.561 41.7717 48.8315 42.5013 47.9315 42.5013C47.0315 42.5013 46.3019 41.7717 46.3019 40.8717L46.3019 30.1398L28.3429 48.0989L26.0383 45.7943L43.9974 27.8353L33.2655 27.8353C32.3655 27.8353 31.6359 27.1057 31.6359 26.2057C31.6359 25.3057 32.3655 24.5761 33.2655 24.5761Z" fill="#F16941"/>
</g>
<defs>
<filter id="filter0_dd_204_1238" x="0.137207" y="0" width="76" height="76" filterUnits="userSpaceOnUse" color-interpolation-filters="sRGB">
<feFlood flood-opacity="0" result="BackgroundImageFix"/>
<feColorMatrix in="SourceAlpha" type="matrix" values="0 0 0 0 0 0 0 0 0 0 0 0 0 0 0 0 0 0 127 0" result="hardAlpha"/>
<feMorphology radius="2" operator="dilate" in="SourceAlpha" result="effect1_dropShadow_204_1238"/>
<feOffset dy="2"/>
<feGaussianBlur stdDeviation="3"/>
<feColorMatrix type="matrix" values="0 0 0 0 0 0 0 0 0 0 0 0 0 0 0 0 0 0 0.15 0"/>
<feBlend mode="normal" in2="BackgroundImageFix" result="effect1_dropShadow_204_1238"/>
<feColorMatrix in="SourceAlpha" type="matrix" values="0 0 0 0 0 0 0 0 0 0 0 0 0 0 0 0 0 0 127 0" result="hardAlpha"/>
<feOffset dy="1"/>
<feGaussianBlur stdDeviation="1"/>
<feColorMatrix type="matrix" values="0 0 0 0 0 0 0 0 0 0 0 0 0 0 0 0 0 0 0.3 0"/>
<feBlend mode="normal" in2="effect1_dropShadow_204_1238" result="effect2_dropShadow_204_1238"/>
<feBlend mode="normal" in="SourceGraphic" in2="effect2_dropShadow_204_1238" result="shape"/>
</filter>
</defs>
</svg>
